<svg width="504" height="630" viewBox="0 0 504 630" fill="none" xmlns="http://www.w3.org/2000/svg">
    <path d="M367.923 630C372.723 626.974 378.108 626.498 382.652 623.939C387.669 621.114 392.567 618.213 396.083 613.523C401.151 606.764 400.698 600.134 395.163 592.577C391.467 587.531 386.023 584.284 381.366 579.137C399.522 572.25 416.203 562.663 435.84 563.986C444.087 564.542 452.232 566.479 460.462 567.473C468.197 568.407 475.992 568.905 483.666 566.87C503.309 561.662 509.575 545.598 498.695 528.452C491.432 517.006 481.025 508.492 471.042 499.742C452.654 483.623 438.706 464.973 428.798 442.222C415.282 411.187 400.913 380.298 380.176 353.063C376.93 348.799 373.419 344.732 369.915 340.674C368.727 339.298 367.878 338.17 368.343 336.121C373.542 313.213 363.897 295.413 348.779 279.457C342.579 272.914 334.924 268.063 328.879 261.264C313.602 244.084 303.085 224.213 293.555 203.496C286.984 189.209 285.985 173.818 282.254 158.993C274.318 127.46 260.819 98.3831 244.387 70.5523C242.139 66.7437 242.051 64.1943 244.661 60.4487C254.165 46.8089 253.219 27.8715 242.899 14.8693C232.349 1.5769 215.053 -3.4595 199.546 2.44615C187.542 7.01767 180.506 16.0327 178.008 28.3956C177.161 32.5894 175.363 33.5791 171.409 33.6492C147.865 34.0666 124.385 35.4347 101.547 41.7649C94.7349 43.6532 88.166 46.4561 81.5567 49.0228C78.8688 50.0666 77.1114 49.801 75.5157 47.1669C60.887 23.0199 26.0992 25.2018 10.2298 50.3143C-3.83743 72.5749 5.06369 97.2342 24.2908 105.556C27.1817 106.808 27.4086 108.492 26.4362 111.322C16.301 140.816 8.63779 170.938 4.66864 201.895C2.11844 221.785 0.743317 241.807 0.34549 261.857C-0.36203 297.514 -0.135132 333.182 2.47604 368.758C5.09344 404.418 7.98746 440.034 16.7794 474.949C27.6206 518.001 48.6584 555.109 79.7836 586.496C94.82 601.659 113.516 611.008 133.608 617.821C147.374 622.489 161.208 626.832 175.827 629.785C239.912 630 303.674 630 367.923 630ZM435.718 484.242C438.867 487.691 441.851 491.31 445.195 494.558C456.124 505.172 467.206 515.63 478.181 526.198C481.423 529.32 484.553 532.576 486.871 536.484C491.799 544.795 490.12 549.447 480.918 552.651C478.99 553.322 476.888 553.641 474.841 553.791C468.241 554.276 461.657 553.733 455.246 552.236C436.115 547.771 417.494 548.98 399.294 556.493C390.657 560.059 381.786 563.106 373.342 567.07C368.318 569.428 364.319 569.364 360.067 565.877C357.672 563.912 354.913 562.382 352.277 560.72C348.651 558.433 345.027 558.088 342.007 561.598C339.371 564.661 340.28 568.77 344.221 572.027C346.349 573.786 348.72 575.253 351.008 576.813C359.73 582.757 368.917 588.029 377.029 594.856C387.263 603.468 386.805 606.137 374.613 611.727C364.131 616.532 352.965 617.915 341.735 618.038C296.229 618.54 250.755 615.326 205.216 617.211C176.589 618.396 149.861 609.515 123.841 598.799C93.6434 586.363 73.9928 561.996 56.5513 535.951C42.0782 514.338 33.8844 490.034 28.6938 464.439C23.5301 438.977 20.4812 413.362 18.331 387.539C15.8754 358.047 14.5648 328.523 14.3705 298.938C14.2601 282.145 14.6838 265.367 15.2844 248.584C16.2381 221.935 18.967 195.506 24.8611 169.491C29.7151 148.066 35.2702 126.816 43.8001 106.474C46.0786 101.04 43.5715 96.419 37.3651 94.6758C33.3562 93.5498 29.3496 92.5962 25.9949 89.8826C16.4081 82.128 14.9875 68.7741 22.8635 57.1902C28.6203 48.723 36.8144 43.9392 47.0827 44.6847C56.0799 45.3379 62.0726 50.6821 65.6147 59.2167C68.8015 66.8951 73.2166 68.118 81.0691 64.7937C92.8537 59.8047 104.553 54.5996 117.368 52.6012C138.243 49.3457 159.143 46.8531 180.346 48.4298C186.521 48.889 189.243 46.6167 190.659 40.5764C191.048 38.9178 190.968 37.1469 191.078 35.4259C191.803 24.0341 200.908 14.6694 211.598 14.3283C221.855 14.001 230.907 20.0621 235.05 30.0325C239.133 39.8579 236.906 49.5236 228.856 56.9131C223.97 61.3981 223.611 63.4319 226.811 69.033C227.927 70.9859 229.169 72.8661 230.314 74.8028C247.749 104.291 262.364 134.972 269.73 168.677C271.754 177.94 272.438 187.65 275.624 196.473C282.264 214.861 290.259 232.785 301.375 249.015C310.166 261.852 319.708 274.04 332.317 283.632C340.346 289.74 346.661 297.607 351.243 306.764C357.386 319.041 357.052 331.066 350.272 342.945C342.622 356.351 326.447 361.735 312.615 355.437C310.379 354.419 307.899 353.495 306.831 350.606C317.358 351.07 321.083 349.534 321.814 344.621C322.462 340.268 319.882 338.027 311.065 335.794C315.189 335.29 318.548 335.001 321.861 334.442C325.636 333.805 327.75 331.279 327.667 327.576C327.584 323.845 325.303 321.565 321.494 321.069C318.785 320.717 316.069 320.418 311.881 319.92C316.381 318.827 319.58 318.277 322.624 317.261C328.382 315.339 329.862 309.657 325.513 305.463C323.646 303.664 323.04 301.904 323.106 299.572C323.294 292.919 321.332 286.609 320.09 280.17C318.043 269.555 311.076 263.816 301.156 262.022C275.726 257.423 251.222 261.194 227.888 272.068C212.093 279.428 205.777 291.855 207.77 309.15C208.422 314.811 210.618 320.061 211.664 325.839C201.301 327.234 192.094 325.893 183.888 319.436C169.461 308.084 155.258 296.475 141.582 284.224C139.79 282.619 137.883 281.053 135.795 279.887C132.71 278.165 129.68 278.678 127.387 281.446C125.21 284.072 125.473 287.074 127.4 289.603C129.164 291.918 131.407 293.89 133.565 295.877C145.544 306.904 158.359 316.952 170.712 327.536C183.906 338.842 198.824 342.244 215.676 339.879C222.738 338.888 229.888 337.408 237.816 338.963C234.57 341.843 231.09 342.879 227.895 344.412C223.905 346.327 222.339 350.061 223.978 353.738C225.707 357.62 229.197 359.06 233.472 357.407C236.534 356.223 239.468 354.711 242.485 353.405C243.971 352.761 245.24 353.172 245.991 354.633C246.693 356.001 245.924 356.987 244.839 357.684C241.928 359.553 239.006 361.408 236.03 363.17C232.243 365.413 229.771 368.392 231.422 372.958C232.82 376.826 237.128 377.907 242.157 375.935C245.117 374.774 247.985 373.379 251.261 371.927C250.896 377.293 247.486 379.358 243.991 381.307C230.757 388.687 216.376 392.373 201.431 393.6C185.182 394.934 168.967 394.495 152.852 391.337C131.782 387.209 117.65 373.016 103.768 358.347C97.3472 351.562 91.0816 344.627 84.5465 337.955C81.6389 334.986 77.8806 333.824 74.288 336.731C70.8051 339.55 71.5416 343.145 73.6225 346.549C74.4308 347.871 75.344 349.17 76.4132 350.285C85.9966 360.276 95.4427 370.408 105.286 380.137C118.348 393.048 133.47 402.36 151.914 405.659C171.835 409.222 191.775 409.665 211.795 406.767C227.762 404.456 242.871 399.537 256.09 390.21C260.136 387.355 263.995 385.601 268.731 385.298C282.641 384.409 295.597 380.557 307.213 372.717C309.836 370.946 312.303 370.602 315.475 371.209C332.722 374.51 347.278 369.807 358.536 355.973C359.391 354.923 360.03 353.599 361.649 353.212C362.023 353.414 362.592 353.547 362.88 353.905C365.265 356.872 367.681 359.821 369.936 362.887C388.435 388.034 400.732 416.569 414.315 444.39C420.832 457.738 425.707 471.94 435.718 484.242ZM283.707 274.06C287.143 274.379 290.592 274.606 294.014 275.037C302.954 276.163 304.82 277.887 306.891 286.515C307.858 290.547 308.512 294.611 309.028 298.735C309.613 303.412 308.11 305.947 303.698 307.873C296.369 311.074 292.914 316.107 294.39 322.811C295.993 330.09 293.282 336.755 292.571 343.572C291.962 349.405 291.578 354.398 294.932 359.238C296.46 361.445 296.205 362.995 293.788 364.237C286.317 368.077 278.399 370.297 270.031 371.008C267.266 371.243 266.399 370.075 265.55 367.409C263.85 362.065 261.118 357.081 260.891 351.263C260.811 349.205 259.62 347.251 258.07 345.83C255.808 343.756 255.188 341.323 255.49 338.37C256.015 333.241 253.384 329.827 249.085 327.489C244.901 325.213 240.427 324.198 235.642 324.192C226.581 324.181 226.577 324.111 223.79 315.643C223.413 314.495 223.02 313.344 222.764 312.166C219.973 299.269 222.818 289.563 235.839 283.814C250.921 277.156 266.784 275.677 283.707 274.06Z" fill="#2D2926"/>
    <path d="M155.615 136.445C150.819 138.028 146.442 139.503 142.063 140.979C136.165 120.651 123.876 111.58 107.913 115.562C93.5212 119.151 84.4479 132.201 87.3024 145.206C90.9118 161.651 104.554 168.219 126.824 163.881C126.914 169.406 125.72 174.794 126.556 180.3C129.712 201.099 140.608 210.631 161.5 209.563C173.078 208.971 184.025 205.397 193.78 199.155C209.308 189.218 213.463 171.389 204.493 155.148C203.01 152.463 201.316 149.895 199.306 146.594C210.552 144.103 218.768 138.364 222.274 127.469C224.142 121.663 223.67 115.883 221.051 110.296C215.078 97.5594 199.371 91.7067 185.759 97.1914C170.848 103.199 165.962 116.441 172.316 134.539C166.826 135.146 161.429 135.741 155.615 136.445ZM146.304 192.948C136.943 182.577 137.614 160.766 147.453 155.609C150.815 163.732 155.426 166.885 162.659 165.808C165.777 165.344 168.563 164.103 170.969 161.897C174.7 158.475 174.32 153.907 174.453 149.557C183.525 149.375 191.079 155.621 194.477 165.814C197.391 174.558 195.189 182.221 187.528 187.116C178.189 193.083 167.839 196.308 156.657 196.426C153.115 196.463 149.822 195.517 146.304 192.948ZM100.513 141.075C100.235 134.926 103.78 131.446 109.027 129.487C114.418 127.475 119.601 128.058 123.998 132.08C128.956 136.615 129.23 143.366 124.424 148.128C120.516 152.001 115.704 153.549 110.173 152.115C104.81 150.726 101.414 147.51 100.513 141.075ZM185.034 113.865C187.13 111.419 189.84 109.93 192.895 109.141C199.528 107.428 205.968 110.229 208.685 115.888C211.063 120.842 209.738 126.03 205.171 129.653C199.724 133.973 191.76 133.881 186.542 129.436C182.164 125.706 181.45 120.253 185.034 113.865Z" fill="#2D2926"/>
    <path d="M297.653 300.64C307.055 290.979 304.499 281.267 291.784 278.249C277.414 274.838 263.286 276.974 249.418 281.351C242.314 283.594 235.394 286.241 229.592 291.17C225.981 294.238 223.316 297.847 224.125 302.773C224.923 307.64 228.314 310.617 232.842 312.192C242.082 315.405 251.533 314.978 261.01 313.549C273.918 311.603 286.429 308.505 297.653 300.64ZM250.25 296.373C261.002 292.228 272.127 290.873 284.407 291.336C275.381 297.629 253.316 301.656 242.989 299.176C245.345 298.26 247.426 297.45 250.25 296.373Z" fill="#2D2926"/>
    <path d="M182.622 173.619C181.036 170.167 178.409 168.957 175.259 169.573C169.853 170.63 164.489 171.939 159.164 173.354C155.323 174.375 153.254 176.945 154.045 181.069C154.823 185.124 157.901 186.153 161.469 185.857C167.162 185.384 172.702 183.966 178.088 182.152C181.782 180.907 183.531 178.058 182.622 173.619Z" fill="#2D2926"/>
    <path d="M110.565 134.476C105.732 138.962 106.127 144.461 111.092 146.1C113.555 146.913 115.894 146.593 117.746 144.614C119.742 142.48 119.909 139.891 118.777 137.408C117.223 133.996 114.219 133.599 110.565 134.476Z" fill="#2D2926"/>
    <path d="M189.575 123.06C191.807 126.729 194.832 127.607 198.229 126.068C201.358 124.649 202.082 121.663 201.289 118.566C200.499 115.486 198.046 114.185 194.984 114.19C190.847 114.197 188.889 117.256 189.575 123.06Z" fill="#2D2926"/>
</svg>