<svg width="428" height="502" viewBox="0 0 428 502" fill="none" xmlns="http://www.w3.org/2000/svg">
    <path d="M398.267 276.673C394.449 259.595 386.056 245.164 376.496 231.247C366.477 216.662 355.575 202.691 346.468 187.465C340.505 177.495 337.42 166.812 335.836 155.35C332.114 128.414 328.123 101.48 318.032 75.9643C316.582 72.2986 316.59 70.2326 320.566 67.9249C334.563 59.8003 340.029 44.1768 334.987 28.4477C326.827 2.99761 293.805 -8.5707 272.783 7.49825C266.605 12.2211 261.956 12.6353 254.865 11.0975C228.958 5.47872 202.697 4.91699 176.342 7.76189C167.144 8.75478 158.002 9.93182 149.183 12.8311C147.288 13.4541 146.082 13.0389 144.7 11.6795C132.398 -0.418327 117.975 -2.8722 102.165 3.18066C86.4058 9.21405 76.9924 20.827 75.5265 37.7093C74.4812 49.7479 79.8237 59.4675 89.5832 66.653C90.8065 67.5536 92.0913 68.3709 93.192 69.1208C93.5962 70.9396 92.5975 72.0761 91.922 73.2093C68.2923 112.856 53.3695 155.908 42.3609 200.442C35.0524 230.008 30.0751 259.974 28.267 290.426C27.0168 311.484 26.4853 332.522 29.1685 353.515C29.489 356.023 27.9649 357.491 26.6013 359.156C14.2384 374.249 4.98508 390.783 1.31256 410.278C-4.05579 438.775 7.2514 466.692 31.4123 483.041C49.955 495.588 70.735 500.932 92.8342 501.862C119.231 502.973 144.495 497.265 169.31 488.957C170.77 488.468 172.279 488.105 173.7 487.525C178.831 485.431 182.667 485.159 187.165 490.319C194.02 498.185 203.272 496.251 208.431 487.159C209.037 486.089 209.918 484.996 210.028 483.852C210.761 476.22 216.666 476.895 221.832 476.3C224.078 476.041 224.683 477.653 225.383 479.227C227.519 484.029 230.042 488.606 233.49 492.609C241.824 502.285 252.391 501.07 257.618 489.455C259.299 485.719 261.438 485.007 265.013 485.036C281.175 485.163 297.359 485.984 313.491 484.372C338.454 481.878 363.445 479.358 386.877 469.45C399.334 464.182 410.768 457.283 419.292 446.427C431.524 430.85 429.285 414.257 422.259 397.573C418.266 388.092 411.835 380.194 404.492 373.038C399.861 368.524 395.248 363.992 390.661 359.434C385.527 354.332 383.257 348.287 382.624 340.919C381.983 333.444 383.798 328.335 389.208 322.833C400.302 311.551 402.08 297.15 399.368 282.017C399.07 280.354 398.712 278.702 398.267 276.673ZM108.532 65.6697C107.796 62.1 104.852 61.0502 101.985 59.8214C88.0767 53.8605 83.6068 40.9278 90.7505 27.5295C100.043 10.1016 128.25 5.712 138.865 23.6231C140.999 27.2251 144.311 28.1941 147.992 26.1224C155.438 21.9317 163.664 20.7778 171.9 19.7074C191.37 17.1773 210.909 17.0604 230.428 18.8507C242.051 19.9168 253.735 21.0294 264.503 26.2691C268.284 28.1087 271.4 26.9822 273.605 23.4391C276.297 19.1122 279.96 15.996 284.717 14.1026C299.19 8.34164 317.603 16.0425 323.126 30.6268C326.404 39.2833 325.446 47.6122 318.7 54.6129C315.854 57.5667 312.159 59.1206 308.417 60.6254C303.962 62.4166 302.397 65.5517 303.616 70.2118C304.276 72.7321 305.22 75.1891 306.179 77.6183C316.145 102.865 320.448 129.454 323.946 156.108C325.727 169.672 329.462 182.131 336.393 193.832C344.258 207.11 353.529 219.403 362.449 231.947C374.839 249.371 386.02 267.293 388.389 289.303C390.308 307.13 376.566 330.102 352.054 323.248C323.088 315.147 297.046 301.062 273.969 281.676C269.379 277.82 264.523 274.16 261.524 268.796C260.427 266.834 259.003 264.463 261.008 262.397C263.163 260.176 266.028 259.511 269.069 260.538C270.079 260.879 270.98 261.528 271.965 261.957C274.961 263.262 277.464 262.432 279.24 259.843C280.972 257.318 280.402 254.802 278.352 252.71C276.558 250.881 274.574 249.237 272.458 247.315C275.814 245.03 278.175 246.398 280.591 248.286C283.574 250.616 286.82 252.07 290.112 248.912C292.594 246.53 291.791 242.807 288.378 239.219C286.666 237.42 284.254 235.986 284.363 232.931C286.999 231.715 289.428 232.133 291.815 232.632C303.903 235.161 314.784 240.498 325.005 247.236C329.37 250.113 333.484 253.367 337.724 256.434C340.263 258.271 342.919 258.633 345.267 256.3C347.736 253.847 347.387 251.006 345.567 248.316C344.889 247.314 343.975 246.424 343.025 245.661C327.938 233.549 311.423 224.27 292.184 220.64C289.409 220.116 288.684 218.872 288.606 216.352C288.469 211.896 288.109 207.445 287.793 202.996C286.832 189.475 283.043 184.914 269.844 182.394C247.33 178.095 224.738 179.173 202.323 182.877C188.318 185.192 181.486 193.549 179.976 207.892C179.225 215.021 178.656 222.169 177.983 229.56C170.653 221.171 164.43 219.507 154.966 223.224C150.15 225.116 146.112 228.185 142.45 231.757C136.6 237.463 131.178 243.551 126.351 250.159C123.293 254.344 120.171 258.482 116.958 262.801C114.787 261.522 113.081 260.507 111.365 259.509C107.378 257.19 103.667 254.366 99.3241 252.7C96.4093 251.582 93.794 252.069 92.1084 254.924C90.437 257.755 91.1975 260.346 93.5616 262.349C95.1907 263.728 97.118 264.761 98.9327 265.916C102.398 268.122 106.155 269.903 109.394 272.826C108.051 275.259 106.527 277.42 105.62 279.814C104.508 282.75 104.789 285.686 107.871 287.481C110.987 289.296 113.464 287.915 115.61 285.559C116.022 285.107 116.329 284.561 116.69 284.062C125.252 272.213 133.36 260.02 142.885 248.896C147.585 243.407 152.282 237.795 158.933 234.5C164.027 231.976 166.789 233.478 167.754 239.063C168.176 241.506 167.853 243.935 167.396 246.389C166.78 249.7 168.18 252.282 171.459 253.18C174.722 254.073 177.175 252.6 178.474 249.458C178.941 248.326 179.272 247.122 179.524 245.922C180 243.654 181.435 242.735 183.557 243.272C185.863 243.857 184.87 245.701 184.598 247.094C184.186 249.203 183.363 251.252 183.139 253.372C182.832 256.268 184.164 258.535 186.975 259.506C189.833 260.493 192.158 259.434 193.634 256.849C194.388 255.527 194.88 254.041 195.379 252.591C195.927 250.997 196.816 249.85 198.608 249.768C200.681 249.673 201.573 251.063 202.195 252.758C203.404 256.059 203.462 259.404 202.4 262.723C192.795 292.747 176.544 318.261 152.07 338.539C138.194 350.037 123.378 351.954 106.797 346.038C86.5698 338.822 68.6159 327.548 51.0048 315.594C46.8271 312.758 43.3633 312.872 41.2395 315.827C39.2011 318.662 39.9725 322.133 43.8656 324.908C63.3723 338.811 83.701 351.305 106.748 358.509C125.17 364.267 142.258 361.387 157.696 349.388C168.225 341.205 177.596 331.947 185.44 321.168C186.897 319.165 188.3 317.886 191.151 318.486C212.037 322.885 233.113 322.548 254.096 319.779C265.667 318.251 277.901 317.116 285.31 305.509C287.529 306.826 289.656 308.047 291.742 309.334C306.607 318.509 322.442 325.67 338.73 331.866C348.754 335.679 359.103 337.556 369.593 335.931C370.032 336.689 370.242 336.933 370.322 337.214C370.446 337.654 370.543 338.119 370.546 338.574C370.612 351.845 376.058 362.471 385.725 371.471C393.926 379.108 402.566 386.519 408.177 396.472C421.978 420.954 417.195 437.978 395.933 451.391C384.183 458.804 371.331 463.367 357.84 466.209C324.787 473.172 291.361 474.686 257.715 472.833C251.102 472.469 248.705 474.408 247.597 480.784C247.237 482.856 247.625 485.63 244.986 486.097C242.783 486.486 241.685 484.094 240.638 482.47C234.29 472.612 230.966 461.611 228.653 450.24C227.662 445.364 230.247 442.429 233.974 439.978C243.398 433.782 253.289 428.422 263.812 424.41C278.618 418.766 293.429 412.992 309.577 412.285C312.99 412.136 315.022 409.967 315.266 406.683C315.537 403.039 312.948 401.43 309.792 401.051C307.379 400.761 304.862 400.897 302.437 401.207C286.721 403.215 271.99 408.689 257.401 414.481C246.505 418.807 236.187 424.33 226.486 430.974C218.318 436.57 215.207 444.067 217.498 453.746C218.1 456.288 218.594 458.857 219.273 461.378C219.742 463.119 219.675 464.471 217.603 464.893C215.229 465.376 214.59 463.929 214.582 461.975C214.567 458.743 214.666 455.51 214.636 452.278C214.445 431.083 209.954 425.944 189.287 420.895C172.404 416.77 155.275 415.368 138.038 414.93C129.288 414.708 120.454 415.16 111.984 417.849C108.542 418.942 105.538 420.983 106.908 425.237C108.149 429.09 111.346 430.009 115.126 429.166C117.078 428.731 119.016 428.184 120.992 427.922C135.909 425.938 150.823 426.909 165.665 428.556C175.598 429.658 185.434 431.635 194.945 434.9C198.662 436.176 201.711 438.178 202.042 442.484C202.906 453.723 203.007 464.953 200.19 475.973C199.621 478.198 199.463 481.528 196.451 481.692C193.705 481.841 193.352 478.682 192.334 476.698C189.707 471.581 186.928 470.519 181.41 472.412C176.314 474.16 171.181 475.805 166.046 477.438C140.411 485.595 114.542 492.04 87.2343 489.452C71.862 487.995 57.2119 484.34 43.7367 476.635C17.4221 461.589 6.45685 435.441 14.3363 406.268C18.4205 391.146 26.0475 377.869 36.236 366.042C39.2458 362.548 41.582 358.926 40.9679 354.013C40.5112 350.359 40.2497 346.681 39.9348 343.01C37.9546 319.928 38.8457 296.861 41.3189 273.908C44.5496 243.924 50.2815 214.366 58.5175 185.318C69.8149 145.473 84.3446 107.005 106.647 71.8243C107.705 70.155 109.058 68.5581 108.532 65.6697ZM238.884 309.231C224.492 310.036 210.119 310.525 195.41 306.724C199.864 299.39 203.79 292.27 207.056 284.84C211.88 273.866 216.869 262.863 213.769 249.108C218.486 258.389 225.742 261.551 234.388 261.525C247.238 261.488 253.795 253.342 251.692 240.513C251.46 239.103 252.063 238.206 252.594 237.105C254.193 233.79 254.293 230.543 251.52 227.749C248.706 224.913 245.282 224.405 241.741 226.004C236.405 228.413 231.188 227.969 225.932 225.92C219.981 223.6 213.139 227.373 214.139 233.092C214.954 237.752 213.256 241.621 212.967 246.836C209.743 240.073 204.821 237.507 198.488 237.308C197.368 237.272 196.385 237.018 195.613 236.114C192.527 232.507 189.364 229.172 190.544 223.58C191.488 219.104 191.31 214.398 191.727 209.803C192.624 199.917 196.362 195.895 206.178 194.186C214.39 192.756 222.698 192.272 231.004 192.144C243.92 191.944 256.867 191.426 269.624 194.4C273.283 195.253 275.256 197.043 275.448 200.923C275.683 205.68 276.085 210.438 276.655 215.166C277.109 218.932 277.514 222.419 273.868 225.118C272.44 226.175 271.592 228.183 271.619 230.041C271.665 233.188 270.226 234.561 267.324 235.599C262.51 237.321 259.155 240.617 259.43 246.244C259.552 248.745 258.071 249.688 256.195 250.692C251.39 253.263 248.804 257.223 248.12 262.779C247.329 269.21 250.161 274.133 253.787 278.808C258.254 284.569 264.089 288.93 269.568 293.646C271.505 295.313 273.996 296.562 273.476 299.878C272.918 303.432 269.936 303.784 267.427 304.726C258.517 308.074 249.148 308.675 238.884 309.231ZM242.981 250.745C237.704 255.042 231.976 255.026 226.225 252.078C221.292 249.55 220.161 246.258 221.942 240.993C222.78 238.516 223.772 236.097 221.748 232.181C226.169 236.627 230.269 234.448 234.059 234.764C237.809 235.077 241.736 236.498 245.235 233.313C243.049 236.608 242.711 239.6 244.563 243.018C245.887 245.462 245.424 248.094 242.981 250.745Z" fill="#2D2926"/>
    <path d="M181.299 61.6731C196.457 65.8364 202.868 75.9837 202.467 91.5198C211.528 89.5782 220.17 90.1221 229.424 92.5926C228.338 81.6785 231.163 72.6806 239.95 66.3115C246.395 61.6396 253.665 60.3125 261.447 61.2712C274.62 62.894 284.921 74.3841 284.577 87.0565C284.18 101.691 272.791 110.967 252.955 112.502C253.973 118.526 254.507 124.523 253.412 130.648C250.212 148.528 240.291 157.961 221.971 159.414C213.526 160.084 205.015 159.631 196.774 157.368C179.189 152.54 169.712 135.129 175.031 117.689C175.52 116.086 176.008 114.483 176.512 112.828C173.591 111.486 170.573 112.054 167.756 111.363C154.333 108.073 145.424 96.0732 147.202 83.5883C149.213 69.4649 161.434 60.155 176.818 61.0545C178.197 61.1351 179.566 61.3875 181.299 61.6731ZM185.861 131.427C188.338 140.385 194.155 145.528 203.395 146.753C209.511 147.564 215.659 147.619 221.8 147.298C232.575 146.735 238.549 141.832 241.187 131.515C242.346 126.984 242.529 122.333 241.494 117.82C240.548 113.691 238.754 109.836 234.773 107.327C231.542 115.144 227.514 117.861 219.994 117.61C211.422 117.324 207.221 113.87 203.809 104.303C192.655 106.786 183.573 119.577 185.861 131.427ZM160.437 92.3502C164.733 98.8994 171.785 101.653 179.207 99.6783C185.956 97.8829 191.152 91.0453 190.263 85.1284C188.97 76.5178 179.826 71.0056 170.613 73.2829C161.372 75.5672 157.234 82.8369 160.437 92.3502ZM269.647 94.4103C269.993 93.902 270.384 93.4181 270.679 92.8817C273.793 87.2261 273.229 82.1262 269.013 77.6595C264.36 72.7302 255.939 71.4073 249.338 74.569C243.949 77.1502 240.611 82.6171 241.266 87.8854C241.619 90.7243 242.912 93.1514 244.826 95.2413C250.929 101.905 261.821 101.76 269.647 94.4103Z" fill="#2D2926"/>
    <path d="M206.912 126.996C202.802 127.669 199.852 129.314 200.251 133.559C200.629 137.579 203.812 138.589 207.304 138.739C212.683 138.969 218.066 139.302 223.445 139.282C227.24 139.267 230.571 138.029 231.007 133.507C231.34 130.054 228.742 127.663 223.935 127.363C218.411 127.018 212.861 127.08 206.912 126.996Z" fill="#2D2926"/>
    <path d="M259.415 96.2204C262.988 94.5063 264.376 92.0099 262.985 88.5639C261.894 85.8636 259.666 84.4654 256.712 85.0612C253.561 85.6965 251.846 87.9637 252.118 91.0601C252.471 95.0943 254.935 96.9948 259.415 96.2204Z" fill="#2D2926"/>
    <path d="M176.54 96.538C178.567 95.8865 179.924 94.8765 180.603 93.2306C181.904 90.0776 181.132 87.3543 178.147 85.7366C175.177 84.1268 172.252 84.7612 170.611 87.7858C169.085 90.597 169.398 93.5033 172.296 95.5222C173.42 96.3052 174.736 96.8373 176.54 96.538Z" fill="#2D2926"/>
</svg>