<svg width="520" height="529" viewBox="0 0 520 529" fill="none" xmlns="http://www.w3.org/2000/svg">
    <path d="M232.012 528.028C227.091 528.372 222.151 529.173 217.253 528.966C206.406 528.509 195.551 527.826 184.754 526.711C173.176 525.515 161.592 524.104 150.133 522.094C133.065 519.1 115.868 516.379 99.1562 511.928C78.8373 506.515 58.4637 500.414 42.6084 485.291C35.0902 478.12 35.7583 466.343 42.3798 458.284C50.525 448.372 62.2294 445.659 73.1067 441.255C79.2412 438.772 85.8465 437.45 93.0784 435.363C89.1404 432.087 85.6529 429.01 81.986 426.164C57.477 407.141 38.3727 383.662 23.7513 356.373C13.3526 336.966 5.92485 316.397 2.75136 294.771C-0.0224536 275.869 -1.55685 256.617 2.38076 237.482C3.18555 233.572 3.42495 229.518 3.62819 225.516C3.99057 218.379 7.8583 212.536 14.7183 210.47C22.2268 208.209 29.9854 206.772 37.4771 204.464C39.2804 203.909 41.5107 201.48 41.7663 199.662C44.6436 179.201 47.048 158.644 54.7035 139.234C57.4261 132.331 59.7215 124.84 64.1681 119.142C69.706 112.046 68.1318 104.11 69.6032 96.5831C70.8054 90.4336 73.8696 85.8082 77.8481 81.2007C85.2996 72.5714 94.33 67.1645 105.602 65.5107C116.587 63.899 127.204 66.0593 137.725 68.8317C151.044 72.3415 164.514 75.4284 177.571 79.7476C193.559 85.0362 209.209 91.3529 224.957 97.3505C230.299 99.385 235.496 101.801 240.796 104.058C248.654 91.7047 256.012 79.6814 263.863 67.9879C267.779 62.1541 272.402 56.7515 277.088 51.4939C279.389 48.9119 279.985 46.7365 279.353 43.2589C277.158 31.1766 277.81 19.9316 287.704 10.4473C301.947 -3.20625 322.411 -3.75644 336.01 10.4489C340.022 14.6399 342.624 20.149 346.359 24.6511C347.654 26.2126 350.536 27.5306 352.496 27.2981C365.853 25.714 378.281 29.4207 390.569 33.6283C405.116 38.6089 417.55 47.1319 428.856 57.4548C430.089 58.5802 432.653 59.2774 434.226 58.838C446.622 55.3765 458.741 56.0038 469.637 62.7936C484.544 72.083 493.595 89.2427 485.064 107.626C480.474 117.517 473.159 124.348 463.568 129.139C462.287 129.779 460.736 131.316 460.599 132.577C459.594 141.859 458.946 151.179 458.131 160.483C456.593 178.045 455.083 195.61 453.431 213.161C452.633 221.638 451.54 230.086 450.609 238.293C456.515 240.746 462.408 242.95 468.084 245.616C474.561 248.658 478.152 253.847 477.902 261.207C477.615 269.663 477.347 278.127 476.743 286.564C476.455 290.588 477.489 292.527 481.61 294.171C499.411 301.272 512.469 313.404 517.832 332.277C522.892 350.085 518.957 366.375 507.462 380.706C499.804 390.254 489.861 396.695 478.126 400.335C464.323 404.616 450.595 404.083 437.069 399.367C433.265 398.041 431.29 398.467 428.307 401.666C412.683 418.42 396.213 434.292 376.078 445.769C374.486 446.676 373.105 447.953 371.129 449.43C378.992 453.017 386.426 455.989 393.45 459.728C400.891 463.689 407.818 468.48 412.03 476.25C416.217 483.975 415.402 489.457 409.548 496.125C401.182 505.656 390.009 510.403 378.444 513.951C366.348 517.662 353.996 520.996 341.511 522.866C325.468 525.27 309.187 526.112 292.998 527.504C284.996 528.191 276.97 528.604 268.095 528.793C255.495 528.306 243.754 528.167 232.012 528.028ZM348.989 278.847C356.065 278.457 363.149 278.178 370.214 277.652C386.45 276.445 402.677 275.116 418.908 273.838C430.145 272.953 432.817 271.129 434.587 263.146C435.452 259.24 436.544 255.37 437.167 251.427C439.251 238.247 441.61 225.089 443.045 211.834C445.002 193.756 446.248 175.601 447.718 157.473C448.569 146.981 449.067 136.456 450.185 125.995C450.406 123.922 452.316 121.417 454.166 120.261C457.611 118.108 461.74 117.078 465.306 115.085C473.367 110.579 480.103 96.6249 477.461 89.557C470.329 70.4802 453.048 62.7807 434.899 71.1647C430.498 73.1977 427.132 72.4426 423.922 69.2447C421.113 66.4448 418.412 63.5261 415.484 60.8563C403.934 50.3251 390.418 43.2146 375.146 40.3792C365.26 38.5438 355.025 38.5581 344.939 37.8446C340.987 37.5651 338.392 36.6535 337.159 31.9654C334.539 21.9999 328.654 14.4532 317.984 11.9276C309.34 9.88164 301.628 11.6622 295.348 18.1925C289.489 24.2854 286.16 32.1423 289.704 39.6201C293.765 48.1884 291.587 53.3546 285.083 58.5651C283.189 60.0822 281.959 62.4175 280.391 64.3507C267.312 80.4777 256.422 97.9539 247.969 116.928C246.652 119.883 245.833 123.154 244.03 125.757C243.109 127.087 240.294 128.106 238.746 127.7C237.386 127.343 236.199 124.923 235.679 123.192C235.211 121.633 235.312 119.59 235.936 118.08C237.453 114.406 235.407 113.375 232.574 112.279C226.201 109.813 219.961 107.003 213.579 104.561C199.953 99.3475 186.449 93.7195 172.563 89.3055C158.381 84.7973 143.869 81.2523 129.377 77.8091C112.857 73.8842 97.5126 75.1156 85.1772 88.956C80.431 94.2814 79.1223 99.721 81.1317 106.65C83.0012 106.375 84.8072 106.461 86.3143 105.832C99.9937 100.123 112.085 101.666 122.275 113.152C122.928 113.889 124.993 114.309 125.79 113.84C134.243 108.86 143.298 108.191 152.935 108.314C164.895 108.465 176.354 110.482 186.415 116.501C211.158 131.304 235.4 146.942 259.922 162.117C274.864 171.363 289.53 181.191 305.106 189.236C318.155 195.975 332.357 200.477 346.021 206.037C349.139 207.306 352.568 208.976 351.066 213.121C349.683 216.935 346.473 217.869 342.543 216.384C331.708 212.29 320.411 209.156 310.073 204.067C296.358 197.315 283.178 189.395 270.125 181.396C246.727 167.057 223.572 152.321 200.363 137.677C187.171 129.354 174.457 120.149 157.985 119.195C141.172 118.221 128.753 119.441 121.676 135.624C120.2 138.998 118.94 141.189 124.424 141.287C132.807 141.436 141.212 141.876 149.55 142.739C163.595 144.195 171.759 154.4 180.017 164.195C188.251 173.961 195.572 184.604 204.546 193.617C218.064 207.192 232.475 219.907 246.893 232.548C255.185 239.819 264.252 246.204 272.939 253.027C275.361 254.93 277.429 257.275 275.032 260.344C272.586 263.475 269.259 263.17 266.268 261.134C261.521 257.902 256.759 254.646 252.342 250.99C241.719 242.2 230.877 233.611 220.894 224.131C208.243 212.118 196.09 199.548 184.228 186.749C175.837 177.695 168.286 167.862 160.338 158.351C153.643 166.92 147.685 174.546 142.55 181.118C151.588 192.31 161.322 202.486 168.809 214.109C178.256 228.772 182.379 245.478 181.007 263.163C180.615 268.228 181.638 271.106 187.795 270.872C193.799 270.644 199.879 271.518 205.878 272.282C211.701 273.022 217.428 274.742 223.259 275.146C239.124 276.247 255.023 276.865 270.906 277.706C275.276 277.937 279.64 278.521 284.006 278.513C290.345 278.502 296.684 278.101 303.498 278.709C318.307 278.762 333.115 278.815 348.989 278.847ZM392.416 287.011C390.342 287.384 388.279 288 386.193 288.089C375.152 288.56 364.105 288.886 353.062 289.288C342.293 289.68 331.513 290.632 320.759 290.396C302.203 289.989 283.662 288.9 265.119 288.006C250.629 287.307 236.126 286.724 221.666 285.61C211.111 284.797 200.613 283.222 190.094 281.953C173.938 280.003 157.712 278.486 141.652 275.932C123.949 273.116 106.385 269.416 88.7889 265.954C65.7726 261.426 43.1899 255.438 21.8506 245.422C18.7828 243.982 15.6892 242.597 11.8116 240.822C11.8116 251.786 11.7169 261.774 11.8326 271.759C12.0347 289.204 15.3711 306.169 21.0785 322.554C28.9437 345.133 40.2557 365.817 55.3359 384.606C66.3431 398.32 78.7026 410.468 92.5666 421.029C109.526 433.948 127.694 445.244 147.773 452.53C164.258 458.512 181.273 463.238 198.337 467.341C208.652 469.82 219.499 470.141 230.127 471.25C235.653 471.826 241.262 472.617 246.76 472.241C257.617 471.497 268.441 470.149 279.247 468.801C306.304 465.427 332.175 457.448 356.083 444.746C371.732 436.432 386.556 425.956 400.13 414.528C413.557 403.223 426.165 390.51 434.843 374.799C441.965 361.904 450.071 349.316 455.245 335.648C460.467 321.853 462.926 306.96 465.967 292.416C467.248 286.293 466.914 279.833 467.331 273.278C456.241 276.464 446.483 280.203 436.38 281.947C422.166 284.401 407.697 285.375 392.416 287.011ZM131.619 175.765C138.223 169.242 144.966 162.821 148.868 152.57C141.731 152.57 135.441 152.487 129.154 152.591C121.11 152.724 113.325 152.363 108.295 142.255C97.8077 153.667 87.8615 163.689 78.8421 174.484C63.4954 192.853 52.8898 213.978 44.9525 236.467C43.4576 240.703 44.2873 244.044 49.3344 245.178C75.1857 250.988 100.976 257.088 126.905 262.523C139.221 265.105 151.798 266.444 164.259 268.326C168.699 268.996 171.408 267.804 170.651 262.56C169.453 254.261 169.477 245.611 167.064 237.695C160.839 217.266 148.523 200.891 131.002 188.505C124.659 184.021 124.708 180.353 131.619 175.765ZM68.0482 134.875C59.8775 151.722 57.1394 169.859 54.9071 188.131C56.5275 186.77 57.5803 185.229 58.7391 183.773C66.465 174.065 74.3642 164.491 81.9135 154.648C89.9517 144.168 100.311 136.475 111.058 129.128C113.717 127.31 117.372 125.335 115.036 121.101C111.582 114.839 103.348 112.468 96.5752 114.576C90.6299 116.425 84.3737 117.278 76.4901 118.943C74.3166 122.854 71.1914 128.478 68.0482 134.875ZM448.117 379.562C442.774 380.693 440.909 384.552 439.658 389.251C459.198 396.07 476.658 392.453 492.061 380.724C505.572 370.436 511.996 355.73 508.577 339.027C504.96 321.364 493.309 309.568 475.254 303.521C474.563 306.941 473.982 309.821 473.392 312.739C475.498 313.694 477.324 314.323 478.948 315.291C499.224 327.373 506.904 347.541 494.002 367.072C485.145 380.481 467.068 385.32 448.117 379.562ZM468.54 329.969C463.069 343.251 457.598 356.532 452.073 369.946C462.475 373.347 472.761 372.091 481.1 365.121C494.749 353.715 491.162 337.091 476.554 326.34C472.162 323.107 469.747 323.694 468.54 329.969ZM30.3953 237.614C31.2931 237.611 32.8604 237.883 32.9905 237.566C35.8918 230.493 38.6347 223.355 41.4076 216.229C40.7113 215.537 40.0149 214.845 39.3186 214.152C32.2895 216.802 25.1745 219.248 18.2634 222.176C14.1046 223.937 14.0868 226.965 17.6405 229.521C21.4927 232.291 25.6274 234.67 30.3953 237.614ZM461.952 254.592C457.596 252.972 453.239 251.352 448.256 249.499C446.776 256.172 445.52 261.836 443.875 269.256C452.31 265.964 459.232 263.262 467.023 260.221C465.038 257.901 463.837 256.496 461.952 254.592Z" fill="#2D2926"/>
    <path d="M343.437 70.4149C354.63 80.2776 355.385 90.7948 345.771 104.813C355.507 106.555 364.065 110.859 373.12 115.403C373.349 106.289 376.531 99.2955 384.456 94.9837C389.318 92.3388 394.541 91.8522 399.826 93.3076C413.196 96.9891 420.436 109.934 416.416 122.691C412.568 134.905 400.481 138.991 383.947 133.617C383.189 135.066 383.471 136.673 383.28 138.194C381.654 151.178 370.3 162.377 357.46 163.515C351.863 164.012 346.498 162.797 341.28 160.974C334.36 158.555 328.379 154.656 323.216 149.602C311.78 138.407 311.486 124.439 322.382 112.477C323.3 111.469 324.261 110.498 325.497 109.201C316.116 105.424 309.887 99.2375 308.599 89.356C307.888 83.906 308.758 78.7239 312.344 74.1822C320.107 64.3483 332.925 62.6959 343.437 70.4149ZM364.68 152.798C368.398 150.434 371.126 147.133 372.995 143.346C375.838 137.586 376.24 131.625 372.688 125.906C371.452 123.917 369.852 122.893 368.031 125.554C367.235 126.718 365.982 127.377 364.596 127.78C355.287 130.487 345.595 122.826 346.788 113.697C339.518 111.161 332.864 112.83 328.171 118.366C322.11 125.516 321.252 132.12 325.279 138.885C329.325 145.679 335.627 149.93 342.762 152.788C349.715 155.572 357.066 157.182 364.68 152.798ZM397.727 101.113C394.238 100.41 390.876 100.555 387.794 102.528C383.218 105.458 381.295 109.647 381.811 114.868C382.382 120.647 385.381 124.856 390.878 127.252C399.526 131.022 408.689 125.499 409.084 116.311C409.379 109.437 405.509 104.066 397.727 101.113ZM333.278 74.2305C328.029 72.9891 323.409 73.8624 319.84 78.0838C313.913 85.0943 316.796 96.1657 325.543 100.069C333.617 103.671 341.839 99.7787 343.841 91.4065C345.507 84.4431 341.461 77.6001 333.278 74.2305Z" fill="#2D2926"/>
    <path d="M362.137 142.865C360.357 145.318 358.15 145.286 355.808 144.322C351.03 142.355 346.272 140.342 341.52 138.316C340.653 137.946 339.814 137.48 339.035 136.956C337.107 135.659 336.006 133.948 337.123 131.709C338.263 129.425 340.497 129.206 342.58 130.028C348.268 132.271 353.887 134.687 359.478 137.153C361.85 138.199 363.033 140.026 362.137 142.865Z" fill="#2D2926"/>
    <path d="M401.388 111.389C403.543 115.64 402.487 118.571 398.573 119.808C394.825 120.991 389.788 118.486 388.771 114.933C387.842 111.69 390.125 108.477 393.773 108.035C396.862 107.66 399.201 109.128 401.388 111.389Z" fill="#2D2926"/>
    <path d="M330.12 93.1146C324.193 91.0374 321.978 86.7717 324.823 83.3475C326.745 81.0332 329.968 80.3392 332.831 81.6229C336.246 83.1539 338.077 85.9398 337.591 88.8648C337.127 91.6548 334.615 93.1506 330.12 93.1146Z" fill="#2D2926"/>
</svg>