<svg width="483" height="483" viewBox="0 0 483 483" fill="none" xmlns="http://www.w3.org/2000/svg">
    <path d="M153.167 320.325C146.301 334.07 142.52 348.337 143.021 363.483C144.152 397.699 159.717 423.628 189.245 440.664C210.683 453.033 233.89 455.924 258.08 450.494C258.763 450.34 259.458 450.231 260.152 450.136C260.48 450.091 260.82 450.129 261.66 450.129C260.352 452.151 259.284 453.916 258.104 455.604C255.812 458.882 253.818 462.322 252.641 466.153C250.807 472.124 252.988 476.821 258.848 479.154C268.234 482.893 277.281 481.785 285.618 476.28C290.681 472.936 295.4 469.062 300.209 465.342C308.186 459.171 316.927 454.569 326.858 452.547C347.178 448.412 362.91 437.054 376.077 421.586C377.82 419.538 379.654 417.552 381.238 415.385C388.695 405.18 399.017 401.055 411.309 401.02C415.876 401.007 420.422 400.894 424.891 399.743C428.628 398.78 431.824 396.89 434.49 394.189C439.349 389.265 439.611 382.105 435.283 375.91C431.805 370.931 426.917 367.816 421.377 365.645C418.566 364.543 415.677 363.64 412.458 362.52C413.714 356.944 415.056 351.543 416.135 346.09C419.317 330.016 421.612 313.804 421.018 297.388C420.329 278.371 416.218 259.915 411.222 241.586C404.519 216.995 394.558 193.712 384.13 170.561C379.379 160.013 375.186 149.212 370.808 138.499C365.464 125.426 358.022 113.549 350.157 101.904C346.029 95.7908 342.752 89.2196 339.554 82.4591C340.063 81.9861 340.431 81.5262 340.9 81.2255C355.734 71.7229 357.707 52.2205 343.794 38.7858C330.641 26.0846 308.195 24.8928 295.015 36.254C291.854 38.9786 289.409 42.2309 288.046 46.1868C287.318 48.2996 286.407 49.0442 283.941 48.4972C271.695 45.7815 259.217 44.6331 246.72 44.359C236.411 44.1328 226.234 45.9073 216.245 48.5443C214.611 48.9757 213.011 49.5052 212.206 47.2563C208.159 35.9556 199.329 30.857 188.176 28.8219C173.905 26.2177 157.665 33.6668 150.265 46.1793C143.287 57.9773 146.443 72.6152 157.853 80.2357C160.29 81.8634 160.65 83.2204 159.763 85.9156C154.072 103.214 151.576 121.102 149.796 139.174C148.185 155.53 147.919 172.083 143.642 188.107C142.496 192.399 141.119 196.619 138.95 200.542C134.699 208.231 128.201 211.505 119.485 210.852C110.339 210.167 101.782 207.366 93.7649 203.22C84.6564 198.511 78.8864 191.392 79.4784 180.303C79.8272 173.77 79.4857 167.207 78.1884 160.757C76.9455 154.577 71.7899 151.045 65.519 151.89C58.6767 152.812 54.4048 156.892 51.7545 162.995C49.2072 168.86 48.2327 175.114 47.6288 181.385C47.236 185.466 46.2956 187.904 41.5727 189.048C34.4706 190.769 29.7345 196.032 27.2279 202.879C22.183 216.661 21.2601 230.724 25.5535 244.863C27.9368 252.712 32.7884 258.524 40.5655 261.91C59.11 269.984 78.517 275.08 98.2969 278.816C112.204 281.443 126.255 283.108 140.453 283.044C144.782 283.024 149.107 282.879 153.363 281.951C155.454 281.495 156.57 282.187 157.101 284.417C158.616 290.772 160.282 297.095 162.038 303.389C162.519 305.112 161.941 306.283 161.028 307.572C158.187 311.582 155.506 315.696 153.167 320.325ZM248.646 353.118C248.509 356.386 248.438 359.659 248.223 362.923C246.976 381.893 250.849 399.606 260.699 416.01C263.828 421.221 265.991 426.941 266.907 433.055C267.588 437.604 267.113 438.643 262.667 439.916C237.846 447.024 213.869 445.024 191.689 431.529C166.252 416.053 152.644 393.016 152.023 363.109C151.638 344.569 157.325 327.564 168.615 312.737C171.752 308.618 172.073 304.929 170.578 300.112C167.191 289.194 164.328 278.108 163.009 266.695C162.232 259.972 161.166 253.289 162.21 246.465C162.605 243.879 161.214 241.814 158.456 241.404C155.802 241.009 154.329 242.722 153.621 245.049C153.217 246.378 152.994 247.795 152.913 249.185C152.564 255.159 153.031 261.11 153.853 267.015C154.687 273.002 154.565 273.262 148.313 273.553C137.425 274.061 126.599 273.566 115.766 272.246C91.1496 269.245 67.3401 263.296 44.4459 253.705C39.8222 251.769 36.5415 248.539 34.899 243.983C30.1195 230.727 31.1857 217.557 36.4038 204.674C38.0251 200.671 41.3711 198.256 45.5665 197.123C52.7174 195.192 58.9706 198.69 60.547 205.386C61.0536 207.539 60.5451 208.578 58.2242 208.344C56.2475 208.146 54.2708 207.751 52.2971 207.769C49.777 207.793 47.5552 208.752 47.1708 211.571C46.786 214.393 48.5593 215.92 51.1192 216.459C53.5133 216.964 55.9494 217.303 58.3824 217.58C60.5254 217.823 62.7753 217.714 62.3128 220.977C61.8361 224.341 59.5601 222.446 57.9845 222.498C57.0587 222.528 56.1196 222.354 55.1956 222.212C52.2344 221.757 50.075 222.723 49.2858 225.755C48.6651 228.14 50.5013 230.327 53.7079 231.032C56.0774 231.553 58.4912 231.873 60.8529 232.277C60.5578 239.663 55.5233 243.171 48.9334 240.771C46.4221 239.857 43.9622 239.557 42.5479 242.364C41.0938 245.251 42.6568 247.403 45.0414 248.822C47.9826 250.573 51.1823 251.725 54.7249 251.081C62.9635 249.585 67.5839 244.098 69.6246 236.517C72.6965 225.106 72.125 213.605 69.0628 202.235C67.5254 196.526 64.2557 192.119 58.7307 189.679C56.9881 188.91 56.225 187.824 56.3815 185.899C56.8564 180.057 57.485 174.234 59.3006 168.64C60.2018 165.863 61.3889 163.123 64.2575 161.684C67.2127 160.201 68.9441 160.977 69.5322 164.206C70.3746 168.831 70.4352 173.54 70.2118 178.198C69.521 192.606 75.469 203.401 87.8626 210.44C96.253 215.205 105.418 218.2 114.971 219.63C131.5 222.105 142.812 215.468 149.164 199.981C152.517 191.804 154.322 183.259 155.417 174.535C157.888 154.847 158.383 134.946 161.739 115.355C163.514 104.988 165.521 94.6444 169.718 84.9345C172.406 78.7152 172.343 77.9449 166.429 74.9105C153.468 68.2606 151.874 54.3025 162.988 44.8153C170.657 38.2691 179.555 36.4097 189.251 38.2757C197.53 39.869 203.303 45.8945 204.289 53.4356C205.124 59.8249 207.046 61.0527 213.199 59.0244C219.312 57.0092 225.489 55.06 231.869 54.3424C250.896 52.202 269.665 53.778 288.093 59.0927C292.447 60.3483 294.52 59.0435 295.137 54.5676C296.184 46.9807 300.437 42.0184 307.464 39.3249C317.942 35.3088 331.231 38.3705 338.762 46.678C342.961 51.3093 345.203 56.7357 343.685 63.0962C342.371 68.5991 338.641 72.1178 333.749 74.6949C328.852 77.2748 327.949 80.1177 330.461 85.0546C334.331 92.6577 337.99 100.377 342.805 107.47C350.367 118.609 357.517 129.973 362.54 142.562C366.611 152.768 370.801 162.933 375.192 173.005C384.068 193.362 393.412 213.502 399.73 234.9C406.813 258.887 412.618 283.025 411.845 308.269C411.53 318.554 410.121 328.73 408.299 338.847C405.469 354.56 401.565 369.935 393.13 383.737C384.924 397.163 374.982 409.272 364.353 420.822C353.335 432.793 339.912 440.525 323.905 443.917C313.592 446.103 304.242 450.631 295.89 457.133C291.645 460.437 287.435 463.79 283.113 466.992C277.758 470.961 271.974 473.344 265.087 471.596C261.15 470.598 260.509 469.707 262.53 466.048C264.503 462.475 266.867 459.116 269.09 455.683C274.473 447.369 277.719 438.569 275.365 428.475C274.082 422.975 271.938 417.813 269.37 412.795C265.963 406.139 261.918 399.705 260.098 392.394C255.667 374.594 255.433 356.629 260.764 339.062C265.016 325.05 274.044 314.773 288.381 309.908C295.18 307.601 302.287 306.831 309.312 305.655C320.163 303.84 330.849 301.545 341.094 297.295C360.766 289.132 371.653 274.172 375.663 253.691C375.862 252.674 375.901 251.571 375.745 250.55C375.414 248.389 374.224 246.812 371.93 246.587C369.675 246.365 368.09 247.478 367.41 249.654C366.923 251.21 366.547 252.805 366.206 254.402C362.346 272.48 351.284 284.073 334.119 290.284C324.273 293.846 314.071 295.855 303.759 297.251C288.577 299.307 274.481 303.542 263.73 315.331C263.268 315.838 262.788 316.733 261.728 316.289C262.551 313.564 264.357 311.634 266.372 309.799C268.138 308.19 268.618 306.191 267.104 304.158C265.637 302.19 263.605 301.925 261.456 302.917C259.393 303.869 257.825 305.444 256.521 307.283C254.541 310.075 253.047 313.101 252.15 316.41C251.78 317.773 251.241 318.835 249.503 318.399C247.352 317.859 246.097 316.981 247.389 314.489C249.35 310.707 251.92 307.43 254.92 304.426C256.722 302.621 256.97 300.492 255.249 298.445C253.569 296.446 251.489 296.81 249.516 297.879C247.433 299.009 245.8 300.715 244.399 302.61C242.926 304.601 241.528 306.648 239.719 309.204C239.41 307.09 238.895 305.677 239.056 304.346C240.793 289.992 246.371 278.203 260.195 271.433C270.233 266.518 280.683 262.941 291.404 259.962C299.938 257.59 306.231 252.705 308.659 243.728C310.012 238.726 310.849 233.68 310.542 228.489C310.322 224.759 308.516 222.58 305.78 222.643C302.861 222.71 301.28 225.021 301.388 229.04C301.416 230.09 301.481 231.146 301.407 232.191C300.427 246.063 297.017 249.144 286.591 251.957C278.907 254.031 271.432 256.664 264.005 259.527C244.785 266.937 232.993 280.149 230.368 301.001C228.584 315.177 236.833 326.147 250.992 328.076C252.197 328.24 253.577 327.942 254.705 329.286C251.427 336.635 249.444 344.401 248.646 353.118ZM410.429 391.756C406.469 391.687 402.595 392.524 398.067 393.178C402.362 386.387 405.911 379.845 408.654 372.9C409.078 371.828 409.839 371.554 410.899 371.826C416.263 373.204 421.47 374.97 425.701 378.714C427.867 380.63 429.559 383.032 428.687 386.113C427.865 389.018 425.283 390.143 422.616 390.834C418.845 391.811 414.964 391.72 410.429 391.756Z" fill="black"/>
    <path d="M280.81 95.213C265.344 100.548 259.983 111.006 263.411 129.477C252.955 127.11 242.548 127.87 231.541 128.665C235.308 119.225 235.205 110.699 229.205 102.897C225.524 98.112 220.537 95.3848 214.637 94.6217C199.713 92.6914 186.831 102.872 185.242 117.664C183.721 131.826 193.963 141.171 212.78 142.716C212.899 144.525 211.915 146.052 211.438 147.693C207.366 161.696 213.763 178.02 226.046 184.665C231.401 187.562 237.275 188.606 243.269 188.963C251.218 189.436 258.882 187.99 266.237 185.013C282.529 178.417 288.943 164.223 283.338 147.313C282.866 145.888 282.335 144.483 281.673 142.625C292.667 142.756 301.58 139.072 307.194 129.493C310.29 124.209 311.695 118.526 310.115 112.34C306.696 98.9478 294.659 91.7853 280.81 95.213ZM223.555 170.599C220.889 166.589 219.62 162.041 219.419 157.362C219.114 150.245 221.325 143.963 227.369 139.616C229.47 138.104 231.513 137.737 232.159 141.242C232.442 142.774 233.4 143.985 234.603 144.989C242.685 151.736 255.692 148.018 258.505 138.15C266.854 138.653 272.748 143.203 274.994 150.88C277.894 160.795 275.854 167.931 268.88 173.146C261.875 178.385 253.737 180.054 245.381 179.939C237.238 179.827 229.215 178.341 223.555 170.599ZM213.306 103.519C217.088 104.286 220.371 105.869 222.575 109.207C225.846 114.162 225.925 119.277 223.123 124.409C220.022 130.089 215.192 133.124 208.669 133.235C198.407 133.41 191.705 123.839 195.339 114.252C198.057 107.08 204.264 103.226 213.306 103.519ZM289.252 103.459C295.022 104.425 299.239 107.292 300.942 113.142C303.77 122.857 296.048 132.976 285.629 133.244C276.012 133.493 269.532 125.995 271.208 116.558C272.602 108.71 279.629 103.421 289.252 103.459Z" fill="black"/>
    <path d="M230.395 162.093C231.105 165.45 233.358 166.382 236.164 166.393C241.889 166.416 247.615 166.382 253.34 166.33C254.385 166.321 255.444 166.198 256.469 165.988C259.004 165.469 260.884 164.151 260.751 161.308C260.615 158.409 258.446 157.202 255.966 157.154C249.194 157.023 242.416 157.105 235.643 157.25C232.769 157.312 230.754 158.715 230.395 162.093Z" fill="black"/>
    <path d="M205.296 112.506C201.498 116.047 201.277 119.605 204.456 122.629C207.499 125.525 213.291 125.093 215.726 121.79C217.948 118.775 217.13 114.381 213.872 112.311C211.114 110.559 208.298 111.081 205.296 112.506Z" fill="black"/>
    <path d="M284.241 124.375C290.746 124.783 294.638 121.285 293.367 116.465C292.508 113.208 289.734 111.079 286.473 111.175C282.585 111.29 279.677 113.407 278.915 116.678C278.189 119.798 279.951 122.456 284.241 124.375Z" fill="black"/>
</svg>