<svg width="110" height="93" viewBox="0 0 110 93" fill="none" xmlns="http://www.w3.org/2000/svg">
    <path d="M13.3768 56.5341C13.4916 56.6098 13.5897 56.7327 13.6712 56.9027C13.7528 57.0728 13.7523 57.2625 13.6697 57.472C13.5978 57.6764 13.4662 57.8245 13.2749 57.9162C9.11976 59.9086 6.61412 61.1297 5.75799 61.5794C4.91758 62.0347 4.48675 62.2674 4.4655 62.2776C4.2317 62.3897 3.97796 62.433 3.70427 62.4073C3.44121 62.3766 3.27146 62.2816 3.19502 62.1222C3.12368 61.9734 3.07295 61.854 3.04281 61.7638C3.02839 61.6793 3.01652 61.6 3.0072 61.526C2.99788 61.4521 3.00982 61.3679 3.043 61.2736L3.12597 61.0378C3.1481 60.9749 3.19977 60.8782 3.281 60.7478C3.37795 60.6229 3.45343 60.5213 3.50744 60.4431C3.56144 60.365 3.65584 60.2347 3.79064 60.0525C3.94116 59.8757 4.22946 59.4957 4.65555 58.9123C5.08673 58.3396 5.4722 57.8215 5.81196 57.3579C6.95031 55.7795 7.79257 54.415 8.33873 53.2643C4.88495 54.9204 2.4427 55.9738 1.01197 56.4246C0.741632 56.515 0.519836 56.3796 0.346582 56.0183C0.26505 55.8482 0.238767 55.6844 0.26773 55.5267C0.301789 55.3797 0.414461 55.2603 0.605748 55.1686C0.797034 55.0769 1.86694 54.6096 3.81548 53.7667C5.76911 52.9345 6.97972 52.4063 7.44731 52.1821C7.92552 51.9528 8.22839 51.8076 8.35592 51.7464C9.12106 51.3795 9.57949 51.2316 9.73118 51.3026C9.88288 51.3737 9.9893 51.4729 10.0504 51.6005C10.3307 52.185 9.80232 53.5362 8.46527 55.6543C8.20543 56.0665 7.63837 56.8873 6.76408 58.1169C5.90041 59.3414 5.361 60.0837 5.14585 60.3437L11.6694 56.9803C12.5834 56.5421 13.1525 56.3934 13.3768 56.5341Z" fill="#2D2926"/>
    <path d="M15.6837 65.852C15.9962 66.2659 15.7996 66.7391 15.0941 67.2716C15.0188 67.3284 14.9389 67.3888 14.8542 67.4527L13.8452 68.17C13.5277 68.3949 13.2184 68.6209 12.9174 68.8481L9.88824 71.4667C9.65307 71.6442 9.35443 71.4931 8.99232 71.0134C8.97102 70.9852 8.91777 70.9146 8.83257 70.8017C8.75447 70.6983 8.74 70.591 8.78916 70.4801C8.84542 70.3786 8.94534 70.2958 9.08893 70.2317C9.23962 70.177 9.36892 70.0647 9.47683 69.8946C8.68929 69.8098 8.02571 69.41 7.4861 68.695C6.48498 67.3687 7.00976 65.9316 9.06044 64.3837C10.1987 63.5246 11.2191 63.0866 12.1219 63.0697C13.0317 63.0622 13.7884 63.4583 14.3919 64.2578C14.6759 64.6341 14.894 65.0601 15.0464 65.5358C15.308 65.5302 15.5204 65.6357 15.6837 65.852ZM13.2921 65.3537C12.8874 64.8175 12.4304 64.5349 11.9212 64.5058C11.412 64.4767 10.7434 64.7746 9.91565 65.3994C8.52344 66.4502 8.11135 67.3519 8.67936 68.1045C8.82846 68.302 9.08113 68.4509 9.43736 68.5512C9.8007 68.6608 10.1307 68.6775 10.4275 68.6012C11.0704 68.3965 11.6928 68.067 12.2949 67.6126C12.8969 67.1581 13.2775 66.7527 13.4367 66.3963C13.603 66.0493 13.5548 65.7018 13.2921 65.3537Z" fill="#2D2926"/>
    <path d="M17.7619 78.5186C17.3867 78.9261 17.0126 78.9582 16.6399 78.6149C16.4838 78.4712 16.6227 77.8941 17.0565 76.8837C17.4983 75.8646 17.6854 74.9395 17.6179 74.1082C17.5186 74.1289 17.1726 74.1307 16.5797 74.1134C16.0034 74.0954 15.657 74.0888 15.5404 74.0936L14.3428 75.394C14.2057 75.5081 14.0923 75.5878 14.0024 75.6332C13.9125 75.6786 13.7919 75.6878 13.6407 75.6606C13.4981 75.6415 13.3488 75.56 13.1927 75.4163C12.9587 75.2008 12.9734 74.9499 13.2368 74.6639C13.9793 73.8576 15.0943 72.5773 16.5818 70.8229C18.0773 69.0598 19.4438 67.5064 20.6813 66.1626C20.833 65.9979 21.0177 65.9277 21.2356 65.9521C21.4621 65.9845 21.6491 66.0686 21.7965 66.2043C21.9959 66.3879 22.0015 66.6254 21.8133 66.9167L19.6936 69.2185C19.4381 69.4959 19.2508 69.7079 19.1317 69.8546C19.0127 70.0013 18.8297 70.2174 18.5829 70.5028C18.0733 71.0909 17.5089 71.7647 16.8896 72.5242C17.3166 72.565 17.9128 72.5613 18.6782 72.5131C19.4602 72.4643 20.0866 72.3843 20.5575 72.2731C21.3247 72.0664 21.8383 72.0828 22.0984 72.3223C22.1677 72.3862 22.2211 72.4674 22.2585 72.5659C22.3448 72.8376 22.324 73.0428 22.1963 73.1815C22.0686 73.3202 21.8402 73.4464 21.5113 73.56C20.7042 73.8101 19.8933 73.9686 19.0787 74.0355C19.0696 74.8283 18.8889 75.8074 18.5365 76.9729C18.2915 77.7086 18.0333 78.2239 17.7619 78.5186Z" fill="#2D2926"/>
    <path d="M27.3202 76.2638C27.848 76.5979 28.2532 77.0705 28.5358 77.6818C28.8184 78.293 28.8148 78.8277 28.5248 79.2858C28.2412 79.734 27.7697 80.0492 27.1103 80.2316C26.4572 80.4041 25.7786 80.3303 25.0746 80.0102C24.7705 79.8735 24.3396 79.6287 23.782 79.2758C23.3558 80.1916 23.2169 80.8848 23.3654 81.3554C23.3957 81.5279 23.4954 81.6678 23.6647 81.7749C24.2822 82.1657 24.9229 82.2993 25.587 82.1756C26.2574 82.042 26.6822 82.0319 26.8614 82.1454C26.9411 82.1958 27.0133 82.3461 27.0781 82.5963C27.1429 82.8466 27.1343 83.0364 27.0524 83.1659C26.8885 83.4248 26.3385 83.5997 25.4022 83.6906C24.9784 83.7432 24.5169 83.723 24.0177 83.6303C23.5348 83.5338 23.1241 83.3785 22.7855 83.1642C21.9191 82.6158 21.6347 81.6547 21.9323 80.281C22.1083 79.4299 22.4579 78.5912 22.981 77.7646C23.5041 76.938 24.149 76.3489 24.9155 75.9972C25.6821 75.6455 26.4837 75.7344 27.3202 76.2638ZM26.7425 77.3418C26.3641 77.1023 25.9049 77.1116 25.365 77.3696C25.1709 77.4559 24.862 77.7347 24.4383 78.2057C25.8325 79.0881 26.747 79.1858 27.1819 78.4986C27.4467 78.0804 27.3002 77.6948 26.7425 77.3418Z" fill="#2D2926"/>
    <path d="M36.6788 80.9061L37.9569 77.7426C38.1984 77.1537 38.5045 76.9353 38.8752 77.0873C39.2569 77.2439 39.4024 77.4946 39.3119 77.8396C39.2756 77.9903 38.9518 78.8575 38.3406 80.4411C37.7295 82.0248 37.1749 83.517 36.6769 84.9178C36.1898 86.323 35.7026 87.62 35.2152 88.8085C35.081 89.1357 34.7686 89.1986 34.2779 88.9974C33.9508 88.8633 33.8811 88.5672 34.0689 88.1092C33.448 88.2877 32.8159 88.245 32.1725 87.9812C31.3547 87.6458 30.8147 87.0678 30.5526 86.2469C30.3014 85.4306 30.3592 84.5754 30.7258 83.6812C31.0925 82.787 31.6145 82.0266 32.2918 81.4C32.9845 80.7669 33.7873 80.4401 34.7001 80.4195C35.2648 80.4091 35.7708 80.4955 36.2178 80.6789C36.3814 80.7459 36.535 80.8217 36.6788 80.9061ZM35.8416 83.1805C35.8637 82.9093 35.8448 82.6913 35.7849 82.5267C35.7295 82.3511 35.6409 82.2256 35.519 82.1501C35.4124 82.0682 35.2719 81.9915 35.0975 81.92C34.923 81.8484 34.6835 81.8267 34.3791 81.8547C34.0746 81.8827 33.7748 82.0081 33.4796 82.231C32.8892 82.6767 32.4598 83.2267 32.1916 83.881C31.9277 84.5244 31.8363 85.1046 31.9172 85.6219C32.0134 86.1326 32.296 86.4842 32.7649 86.6764C33.2447 86.8732 33.717 86.793 34.1819 86.4359C34.6468 86.0788 35.029 85.535 35.3286 84.8044C35.664 83.9865 35.835 83.4452 35.8416 83.1805Z" fill="#2D2926"/>
    <path d="M49.3202 92.179L47.0486 91.9709C46.9529 91.4683 47.0281 89.2407 47.274 85.2883L47.3594 84.0361C47.4276 83.0366 47.5734 82.2846 47.7968 81.7801C48.021 81.2638 48.4438 80.8674 49.0651 80.5908C49.3813 80.4588 49.8098 80.4113 50.3507 80.4482C50.9033 80.4858 51.3242 80.55 51.6134 80.6406C52.3899 80.8589 52.9041 81.2011 53.1558 81.6672C53.4193 82.1341 53.5254 82.7438 53.474 83.4963C53.4027 84.5428 53.0738 85.2941 52.4875 85.7503C52.7673 85.8048 53.0398 85.9651 53.3052 86.2313C53.5706 86.4975 53.7826 86.7659 53.9413 87.0366C54.215 87.5278 54.3241 88.1791 54.2688 88.9904C54.1822 90.2603 53.7324 91.1392 52.9194 91.6271C52.1191 92.1041 50.9193 92.2881 49.3202 92.179ZM48.8125 83.515L48.7107 85.5281C48.7342 85.5297 48.9357 85.5198 49.3152 85.4984C49.6954 85.4653 50.0169 85.4282 50.2796 85.387C51.4864 85.1858 52.1263 84.5502 52.1993 83.4802C52.2354 82.9511 52.1031 82.5523 51.8025 82.2837C51.5136 82.0159 51.1164 81.8648 50.6108 81.8303C49.9758 81.787 49.5391 81.8694 49.3004 82.0776C49.1999 82.1652 49.1179 82.2423 49.0543 82.3089C48.9915 82.3637 48.9435 82.4608 48.9104 82.6003C48.8772 82.7398 48.8528 82.8385 48.837 82.8965C48.833 82.9553 48.8254 83.067 48.8141 83.2316C48.8147 83.397 48.8141 83.4915 48.8125 83.515ZM52.5247 87.5425C52.416 87.4051 52.2417 87.2751 52.002 87.1524C51.7623 87.0298 51.4073 86.9524 50.937 86.9203C50.4784 86.889 49.6854 86.9117 48.5579 86.9884C48.4328 88.8227 48.3776 90.0652 48.3923 90.7159C49.768 90.8097 50.7382 90.7873 51.3028 90.6486C51.8683 90.4982 52.2539 90.3 52.4597 90.0542C52.678 89.7974 52.7972 89.522 52.8173 89.228C52.8381 88.9223 52.8467 88.7103 52.843 88.5919C52.8518 88.4626 52.8281 88.2897 52.772 88.0732C52.7285 87.8458 52.646 87.6689 52.5247 87.5425Z" fill="#2D2926"/>
    <path d="M60.4456 83.8921C61.0652 83.8133 61.6787 83.9194 62.286 84.2105C62.8932 84.5016 63.2311 84.916 63.2994 85.4538C63.3663 85.9799 63.2038 86.5233 62.8117 87.084C62.4182 87.6331 61.8482 88.0085 61.1016 88.2104C60.7802 88.2987 60.2921 88.3846 59.6374 88.4678C59.8924 89.4452 60.227 90.068 60.6412 90.3361C60.7745 90.4498 60.9405 90.4941 61.1393 90.4688C61.8641 90.3766 62.4431 90.0713 62.8762 89.5529C63.3077 89.0228 63.6288 88.7444 63.8392 88.7177C63.9327 88.7058 64.0842 88.7756 64.2935 88.9272C64.5029 89.0788 64.6172 89.2306 64.6366 89.3826C64.6752 89.6865 64.3627 90.1718 63.699 90.8383C63.4058 91.1489 63.0373 91.4274 62.5934 91.6739C62.1597 91.9073 61.7442 92.0492 61.3466 92.0998C60.3295 92.2291 59.498 91.6695 58.8521 90.421C58.4456 89.653 58.1806 88.7837 58.0572 87.8133C57.9338 86.843 58.0555 85.978 58.4223 85.2186C58.7891 84.4591 59.4635 84.0169 60.4456 83.8921ZM60.6871 85.091C60.2429 85.1475 59.8948 85.4471 59.6431 85.99C59.5485 86.1802 59.488 86.5919 59.4615 87.2249C61.0983 87.0168 61.8654 86.5094 61.7629 85.7027C61.7004 85.2116 61.3418 85.0077 60.6871 85.091Z" fill="#2D2926"/>
    <path d="M71.297 81.3145C71.7922 81.1605 72.171 81.5055 72.4336 82.3495C72.4616 82.4395 72.4914 82.5352 72.5229 82.6365L72.8567 83.8286C72.961 84.2035 73.0691 84.571 73.1811 84.9311L74.6211 88.6673C74.7086 88.9486 74.4654 89.1786 73.8915 89.3571C73.8577 89.3676 73.7733 89.3939 73.6383 89.4359C73.5145 89.4744 73.4087 89.4518 73.3209 89.368C73.2444 89.2807 73.2003 89.1587 73.1885 89.0019C73.188 88.8416 73.126 88.6819 73.0025 88.5228C72.6564 89.2353 72.0557 89.7246 71.2004 89.9906C69.6136 90.4842 68.4387 89.5044 67.6755 87.0511C67.2519 85.6894 67.1848 84.5809 67.4741 83.7257C67.7747 82.8669 68.4033 82.2887 69.3599 81.9912C69.81 81.8511 70.2847 81.7899 70.7838 81.8074C70.8671 81.5593 71.0382 81.395 71.297 81.3145ZM70.0193 83.3968C69.3778 83.5963 68.9573 83.9308 68.7578 84.4002C68.5582 84.8696 68.6124 85.5994 68.9205 86.5897C69.4386 88.2553 70.1478 88.948 71.0481 88.6679C71.2844 88.5944 71.51 88.407 71.7248 88.1057C71.9509 87.8008 72.0782 87.4959 72.1067 87.1908C72.1315 86.5165 72.0319 85.8193 71.8078 85.0991C71.5838 84.3789 71.331 83.8836 71.0494 83.6132C70.779 83.3394 70.4357 83.2672 70.0193 83.3968Z" fill="#2D2926"/>
    <path d="M79.5234 83.9211L80.3746 85.5309C80.4719 85.7194 80.4722 85.9381 80.3753 86.1871C80.2888 86.4307 80.1619 86.5958 79.9943 86.6823C79.7535 86.8067 79.5043 86.6966 79.2468 86.3521C79.193 86.2737 78.7564 85.5309 77.9368 84.1237C77.1118 82.706 76.3809 81.6376 75.7443 80.9185C75.4445 80.5693 75.2757 80.358 75.2379 80.2847C75.0594 79.9391 75.1796 79.6582 75.5985 79.4419C75.7765 79.3499 75.953 79.345 76.128 79.4271C76.3031 79.5091 76.4389 79.618 76.5355 79.7538C76.6373 79.8737 76.7608 80.0487 76.9061 80.2787C77.0514 80.5088 77.1456 80.6525 77.1885 80.7099C77.138 80.0728 77.265 79.5097 77.5696 79.0208C77.8743 78.5319 78.2884 78.1522 78.8119 77.8818C79.6706 77.4384 80.2135 77.4365 80.4406 77.8763C80.5542 78.0963 80.5676 78.3148 80.4808 78.5321C80.3991 78.7334 80.2588 78.8855 80.0598 78.9883C79.1697 79.4479 78.6875 80.0551 78.613 80.8099C78.5385 81.5646 78.842 82.6017 79.5234 83.9211Z" fill="#2D2926"/>
    <path d="M85.3705 69.5155L90.3447 64.3647C90.6609 64.1972 90.9026 64.1965 91.0697 64.3628C91.4875 64.7784 91.526 65.1574 91.1852 65.5C90.5618 66.1267 89.9177 66.8076 89.253 67.5427C89.93 68.2993 90.4523 68.8604 90.82 69.2261C91.1793 69.5835 91.4091 69.8121 91.5093 69.9119L95.9584 74.2378C96.2174 74.4955 96.3014 74.7119 96.2101 74.8872C96.1438 75.0207 96.0359 75.1626 95.8863 75.313C95.6452 75.5554 95.3744 75.5519 95.0737 75.3027C94.3804 74.7128 93.1565 73.5452 91.4018 71.7997C89.6388 70.046 88.6025 68.9653 88.2931 68.5578C88.1269 68.7415 87.8734 69.0047 87.5327 69.3473C87.1919 69.6899 86.7638 70.1119 86.2485 70.6132C86.1155 70.7469 85.9698 70.8098 85.8114 70.8019C85.6531 70.794 85.5154 70.7319 85.3984 70.6155C85.2731 70.4908 85.2018 70.3202 85.1846 70.1035C85.1756 69.8785 85.2376 69.6825 85.3705 69.5155Z" fill="#2D2926"/>
    <path d="M95.7659 62.6124C96.1175 62.0961 96.6035 61.707 97.2239 61.4451C97.8443 61.1832 98.3786 61.2048 98.8267 61.51C99.265 61.8086 99.5642 62.2904 99.7244 62.9556C99.8747 63.6141 99.7781 64.2898 99.4346 64.9827C99.2878 65.282 99.0286 65.7044 98.6571 66.2499C99.5581 66.7066 100.246 66.8687 100.721 66.7362C100.895 66.7117 101.038 66.6167 101.151 66.4511C101.562 65.8472 101.717 65.2113 101.616 64.5434C101.505 63.8689 101.509 63.444 101.629 63.2687C101.682 63.1908 101.834 63.1236 102.087 63.0673C102.339 63.0109 102.528 63.0259 102.655 63.1121C102.908 63.2846 103.065 63.8403 103.124 64.779C103.162 65.2044 103.127 65.6649 103.017 66.1607C102.904 66.6401 102.735 67.0454 102.51 67.3766C101.933 68.2241 100.962 68.476 99.5995 68.1323C98.7549 67.9278 97.9283 67.5502 97.1198 66.9996C96.3113 66.4489 95.7442 65.7846 95.4185 65.0066C95.0928 64.2287 95.2086 63.4306 95.7659 62.6124ZM96.8238 63.226C96.5717 63.5961 96.5655 64.0553 96.8052 64.6036C96.885 64.8005 97.1532 65.1186 97.6097 65.5579C98.5385 64.1942 98.6669 63.2835 97.9948 62.8257C97.5857 62.547 97.1953 62.6805 96.8238 63.226Z" fill="#2D2926"/>
    <path d="M101.027 52.7776C101.239 52.3047 101.749 52.2496 102.555 52.6123C102.641 52.651 102.732 52.6921 102.829 52.7356L103.943 53.2756C104.293 53.4459 104.64 53.6084 104.984 53.7632L108.736 55.1607C109.005 55.2816 109.016 55.6161 108.769 56.1642C108.755 56.1965 108.718 56.2771 108.66 56.4061C108.607 56.5243 108.52 56.5885 108.399 56.5987C108.283 56.5982 108.162 56.5504 108.037 56.4553C107.917 56.3494 107.756 56.29 107.555 56.2772C107.859 57.0085 107.828 57.7826 107.46 58.5994C106.778 60.1149 105.266 60.3455 102.923 59.2913C101.622 58.7062 100.748 58.0219 100.299 57.2384C99.855 56.4442 99.8386 55.5903 100.25 54.6767C100.443 54.2468 100.712 53.8508 101.056 53.4885C100.925 53.2618 100.915 53.0248 101.027 52.7776ZM101.739 55.1143C101.464 55.727 101.435 56.2635 101.655 56.7241C101.874 57.1846 102.457 57.6276 103.402 58.0532C104.993 58.7688 105.982 58.6968 106.369 57.837C106.47 57.6113 106.479 57.3181 106.396 56.9575C106.318 56.5862 106.173 56.2888 105.964 56.0653C105.475 55.5999 104.887 55.2125 104.199 54.903C103.512 54.5935 102.973 54.4546 102.584 54.4864C102.2 54.5073 101.918 54.7167 101.739 55.1143Z" fill="#2D2926"/>
    <path fill-rule="evenodd" clip-rule="evenodd" d="M54 72.6956C73.1619 72.6956 88.6956 57.1619 88.6956 38C88.6956 18.8381 73.1619 3.30435 54 3.30435C34.8381 3.30435 19.3043 18.8381 19.3043 38C19.3043 57.1619 34.8381 72.6956 54 72.6956ZM54 76C74.9868 76 92 58.9868 92 38C92 17.0132 74.9868 0 54 0C33.0132 0 16 17.0132 16 38C16 58.9868 33.0132 76 54 76Z" fill="#2D2926"/>
    <path d="M80 62.9978C79.8719 63.6232 79.5845 64.056 78.9595 63.9941C78.2996 63.9288 78.1039 63.405 78.0675 62.8253C77.9148 60.3933 77.7753 57.9604 77.622 55.5284C77.4201 52.3242 76.9551 49.1535 76.334 46.0066C75.1261 39.8864 73.7631 33.8048 71.5955 27.9345C71.2133 26.8993 70.8286 25.8636 70.397 24.8484C69.9248 23.7375 70.0756 23.3112 71.2098 22.9339C72.376 22.546 73.3417 21.9071 73.9498 20.8152C75.3385 18.3216 74.0911 15.3098 71.366 14.3852C68.4468 13.3947 65.2852 15.411 65.1663 18.317C65.1319 19.1588 64.4406 19.5567 63.6847 19.2313C59.4173 17.3942 54.9534 17.2129 50.4205 17.6648C48.3116 17.875 46.2634 18.3586 44.2981 19.1824C43.3245 19.5906 42.7484 19.197 42.6696 18.1586C42.499 15.907 40.7134 14.1887 38.5163 14.0312C35.2849 13.7994 33.653 16.0608 33.3643 17.801C32.9853 20.0857 34.4098 22.1489 36.7489 22.7995C37.7279 23.0718 38.0107 23.5491 37.6419 24.4401C34.5706 31.8594 32.7953 39.6304 31.35 47.489C30.5642 51.7613 30.234 56.0815 30.0865 60.4181C30.063 61.1098 30.0089 61.8012 29.9464 62.4907C29.8724 63.3074 29.5028 63.7352 28.9353 63.7025C28.3419 63.6684 27.9341 63.1469 28.0088 62.338C28.1201 61.1337 28.0929 59.9259 28.175 58.7232C28.3547 56.0891 28.5332 53.4563 28.8721 50.8334C29.2899 47.6003 29.9179 44.41 30.6018 41.2269C31.7782 35.7519 33.1814 30.3422 35.2757 25.1337C35.4888 24.6037 35.2828 24.404 34.8548 24.1898C33.2031 23.3634 32.1111 22.0506 31.5753 20.2908C30.4955 16.7439 32.8606 12.8969 36.5643 12.1582C40.0726 11.4584 43.0807 13.1139 44.3938 16.4648C44.448 16.603 44.524 16.7327 44.6025 16.8922C50.8296 15.0134 57.0384 15.0265 63.2207 16.8375C63.5076 16.6373 63.5388 16.3357 63.6528 16.0851C64.9612 13.2097 67.9676 11.6625 71.0827 12.2692C74.2335 12.8829 76.4915 15.4042 76.5311 18.5681C76.5625 21.0763 75.4059 23.0183 73.1815 24.2363C72.6063 24.5512 72.4899 24.8081 72.7334 25.422C75.6635 32.8073 77.3518 40.5232 78.7349 48.3102C79.304 51.5143 79.6194 54.7576 79.7381 58.016C79.7978 59.6555 79.9158 61.2929 80 62.9978Z" fill="#2D2926"/>
    <path d="M61.1824 42.8986C59.8612 44.3759 58.2753 45.0841 56.3483 44.9921C53.9145 44.8758 51.5115 44.6007 49.5838 42.8981C47.968 41.471 47.4585 39.6472 48.0136 37.5388C48.0543 37.3844 48.0935 37.2292 48.1223 37.0723C48.1309 37.0253 48.102 36.9714 48.0693 36.8303C45.8727 36.8483 44.0129 36.0846 42.8045 34.1023C42.1298 32.9955 41.8428 31.7864 42.0848 30.4969C42.6298 27.5938 45.2015 25.6724 48.0375 26.0464C49.6685 26.2615 50.9832 27.0457 51.9339 28.4089C52.724 29.5418 52.8674 30.39 52.7523 33.0261C54.2479 32.9645 55.7445 32.8349 57.3528 33.1522C56.8116 30.9525 57.1579 29.0449 58.7658 27.5045C59.812 26.5022 61.0961 26.0152 62.5175 26.0084C65.4042 25.9948 67.7643 28.2635 67.9843 31.1925C68.2079 34.1708 66.0383 36.2912 62.0887 36.8835C62.722 39.0059 62.6131 41.0344 61.1824 42.8986ZM50.4384 37.1304C49.3039 39.2745 49.9202 41.1578 52.1301 42.099C53.8441 42.8291 55.6621 43.0202 57.5005 42.812C59.0695 42.6343 60.3994 41.0005 60.3932 39.3792C60.3857 37.393 59.2072 35.7624 57.5624 35.4767C57.5187 35.535 57.4524 35.5907 57.4277 35.6613C57.0942 36.616 56.3352 36.949 55.4333 36.9314C54.5329 36.9139 53.7691 36.5682 53.5026 35.5826C53.3649 35.0732 53.011 35.1739 52.6827 35.2715C51.7223 35.557 51.038 36.2044 50.4384 37.1304ZM64.9915 33.6875C65.1233 33.5211 65.2721 33.3656 65.3842 33.1867C66.2862 31.7478 65.9804 29.9069 64.6746 28.8731C63.2714 27.7622 61.2201 27.88 60.0484 29.1388C58.9056 30.3666 58.9076 32.2685 60.0532 33.572C61.2633 34.9489 63.3308 35.0317 64.9915 33.6875ZM48.4354 28.2867C46.8412 27.8804 45.5147 28.2788 44.6935 29.47C43.909 30.6079 43.8954 31.827 44.5461 33.0198C45.2196 34.2544 46.641 34.8489 48.161 34.6153C49.4571 34.4162 50.5846 33.2556 50.7592 31.9408C50.9831 30.2551 50.2347 29.0241 48.4354 28.2867Z" fill="#2D2926"/>
    <path d="M53.6014 39.9848C53.2227 39.9303 52.9067 39.9106 52.623 39.817C52.221 39.6845 51.9976 39.3956 52 39.0178C52.0026 38.6155 52.2138 38.2478 52.6681 38.1751C54.1988 37.9301 55.7468 37.9546 57.278 38.1713C57.7551 38.2388 58.0229 38.594 57.9985 39.0493C57.9725 39.5327 57.6699 39.8247 57.1332 39.9076C55.9877 40.0846 54.8298 39.9455 53.6014 39.9848Z" fill="#2D2926"/>
    <path d="M61 31.2778C61.3369 29.7475 62.9206 29.6995 63.6195 30.5647C64.0032 31.0397 64.1342 31.6147 63.8372 32.2215C63.5586 32.7906 63.1069 33.0303 62.5039 32.997C61.8802 32.9624 61.4042 32.672 61.1437 32.0816C61.045 31.858 61.0392 31.5906 61 31.2778Z" fill="#2D2926"/>
    <path d="M48.5293 32.6431C47.7667 33.1811 47.0835 33.0902 46.4749 32.5093C46.0178 32.0731 45.8676 31.5193 46.1259 30.9015C46.364 30.3319 46.8073 30.0111 47.3947 30.0004C47.9591 29.9901 48.4788 30.1934 48.7712 30.7392C49.1214 31.3929 49.0913 32.0285 48.5293 32.6431Z" fill="#2D2926"/>
</svg>