<svg width="773" height="305" viewBox="0 0 773 305" fill="none" xmlns="http://www.w3.org/2000/svg">
    <path d="M156.71 65.9392C199.742 58.7756 241.978 50.152 284.55 43.3716C300.263 40.8692 314.914 33.7946 330.079 28.9C368.222 16.589 407.207 8.43109 446.981 3.69738C463.026 1.78781 478.982 -0.299302 495.223 0.0356526C521.397 0.575527 545.068 8.03272 565.658 24.3486C590.74 44.2229 614.733 65.26 632.642 92.2091C645.401 111.408 656.4 131.759 664.453 153.247C676.568 185.572 701.115 203.31 731.357 215.511C741.824 219.734 752.151 224.114 760.602 232.057C773.643 244.313 777.594 269.526 766.629 287.021C761.942 294.497 753.491 297.129 744.417 297.456C712.973 298.59 681.493 299.333 650.117 301.523C613.988 304.044 577.881 304.581 541.74 303.213C507.978 301.936 474.069 301.591 440.553 297.871C420.7 295.667 402.283 301.194 383.125 301.923C346.39 303.321 309.704 307.015 272.901 303.577C270.789 303.38 268.596 303.24 266.618 302.557C253.254 297.942 239.996 300.413 226.571 302.444C206.111 305.54 185.504 305.249 164.859 304.178C140.026 302.89 115.151 302.416 90.3138 301.205C70.1719 300.222 50.0412 298.875 29.9399 297.261C22.4859 296.663 15.4038 294.047 9.12962 289.751C-2.77507 281.599 -3.06424 268.191 8.42027 259.423C14.7831 254.566 21.9847 251.509 29.6751 249.515C31.9179 248.933 34.283 248.712 36.5174 246.881C35.1177 239.786 33.3408 232.579 32.319 225.268C29.0391 201.798 31.2482 178.622 36.773 155.697C37.5867 152.32 38.4855 149.542 34.7429 146.836C11.1491 129.778 12.6361 97.0758 29.6539 77.8537C48.8759 56.142 80.8396 54.2645 100.147 73.3727C104.576 77.7564 107.512 83.1723 110.546 89.1379C125.506 80.1252 139.47 70.2829 156.71 65.9392ZM149.224 286.398C166.845 287.593 184.482 288.123 202.14 287.588C209.582 287.363 216.983 286.777 224.344 285.512C228.003 284.883 228.665 283.402 227.95 279.846C223.698 258.694 231.038 245.518 251.611 239.257C278.392 231.107 305.795 232.44 333.153 235.801C341.796 236.862 345.974 240.817 345.121 246.233C344.276 251.597 339.367 253.245 330.434 252.296C312.234 250.362 293.971 249.492 275.715 251.657C267.706 252.607 259.634 253.482 252.206 257.033C246.272 259.87 243.047 264.396 243.37 271.207C243.702 278.198 248.154 281.168 254.205 282.741C265.369 285.642 276.766 287.198 288.239 287.603C323.79 288.859 359.232 286.223 394.648 283.696C413.643 282.341 420.492 275.809 423.478 258.238C423.903 255.739 423.89 253.148 423.9 250.598C423.95 238.148 420.659 226.19 418.496 214.062C417.451 208.202 420.037 203.496 424.871 202.672C430.678 201.682 433.762 205.112 434.827 210.221C437.686 223.943 441.012 237.626 441.059 251.761C441.091 261.209 437.823 270.052 434.987 279.536C442.705 282.326 450.436 281.628 457.902 282.04C482.736 283.409 507.62 283.916 532.442 285.454C560.483 287.192 588.533 287.624 616.535 285.974C657.929 283.535 699.341 281.701 740.78 280.393C751.265 280.063 755.327 276.353 755.795 265.795C756.427 251.512 750.55 242.049 736.21 236.154C722.011 230.316 708.303 223.634 694.97 216.025C679.2 207.025 666.588 195.151 658.503 178.733C654.179 169.953 649.39 161.364 645.649 152.341C628.072 109.942 601.078 75.0174 565.77 45.6536C540.575 24.7005 512.867 15.0233 480.458 17.4526C445.204 20.095 410.385 25.4644 376.009 33.6417C356.977 38.1691 338.178 43.5972 319.792 50.3192C299.744 57.6484 279.263 62.8141 257.974 65.1293C233.868 67.7508 210.555 75.5967 186.497 77.9066C158.881 80.558 135.573 91.2705 114.193 108.264C105.89 114.864 97.0317 111.578 95.5288 100.791C93.8815 88.968 86.6957 81.0298 75.0455 78.0233C60.1081 74.1685 43.1907 83.4908 36.5486 98.5676C31.047 111.055 33.8086 127.692 48.7771 136.006C55.9322 139.98 57.4806 145.183 55.4906 152.018C46.0603 184.411 43.9053 216.752 55.9836 249.077C58.8522 256.754 56.1386 261.465 48.1181 263.152C40.218 264.813 32.17 265.836 24.7592 269.299C22.1386 270.523 19.1464 271.392 18.1343 275.019C21.832 278.227 26.4911 278.929 30.9529 280.046C41.4405 282.672 52.2393 280.307 62.7224 281.713C91.0505 285.512 119.608 284.37 149.224 286.398Z" fill="#2D2926"/>
    <path d="M195.187 273.172C194.763 272.133 194.493 271.554 194.241 270.967C190.735 262.787 186.098 255.257 176.09 255.47C166.107 255.682 161.072 263.283 157.079 271.348C155.96 273.609 155.457 276.175 154.678 278.603C153.683 281.704 151.97 284.192 148.337 283.554C144.827 282.937 143.591 280.019 143.64 276.85C143.682 274.124 144.402 271.409 144.915 268.095C131.068 274.061 117.914 274.252 107.703 261.638C101.718 254.244 100.917 245.474 105.796 237.096C113.367 224.098 125.257 220.275 140.563 222.902C137.712 213.959 137.069 205.399 138.903 195.82C127.821 197.442 117.613 196.819 109.966 188.048C105.445 182.864 103.332 176.727 103.452 169.842C103.697 155.702 115.828 143.373 130.462 142.371C145.028 141.374 154.563 151.241 158.702 172.204C169.782 168.368 180.452 169.601 190.213 176.088C197.51 180.936 202.521 187.701 205.567 195.951C211.862 213.002 208.502 233.225 187.887 246.088C200.122 252.106 204.249 263.61 208.358 275.049C209.732 278.873 211.127 283.512 205.864 285.398C200.578 287.292 198.964 282.856 197.454 278.976C196.758 277.191 196.051 275.411 195.187 273.172ZM164.71 214.014C161.974 217.862 157.859 219.348 153.389 220.014C158.203 233.919 174.025 240.057 185.487 232.913C194.861 227.071 198.931 213.014 194.712 201.052C190.122 188.04 179.738 180.737 167.735 182.448C162.454 183.2 157.985 185.569 155.396 190.835C167.446 196.126 170.149 202.648 164.71 214.014ZM145.431 165.583C145.076 164.586 144.833 163.53 144.347 162.601C140.703 155.621 134.081 153.006 126.679 155.572C118.605 158.371 114.001 166.236 115.817 174.13C117.395 180.984 123.32 184.879 131.344 184.337C140.099 183.745 145.596 176.885 145.431 165.583ZM143.996 240.93C140.366 235.024 135.055 232.622 128.337 233.985C122.152 235.24 117.247 238.485 115.769 245.051C114.544 250.493 116.238 255.148 121.039 258.317C125.559 261.301 135.022 260.736 139.695 256.942C144.507 253.034 146.868 248.105 143.996 240.93Z" fill="#2D2926"/>
    <path d="M175.098 207.454C175.23 203.676 175.124 200.459 175.573 197.321C176.005 194.306 177.904 192.184 181.177 192.251C184.406 192.317 186.394 194.496 186.762 197.448C187.5 203.365 187.631 209.366 186.703 215.272C186.208 218.42 184.393 220.867 180.668 220.623C177.279 220.401 175.958 217.967 175.515 215.051C175.165 212.749 175.225 210.385 175.098 207.454Z" fill="#2D2926"/>
    <path d="M138.456 173.096C135.854 177.279 132.726 179.404 128.116 177.73C124.66 176.475 123.223 173.631 123.268 170.239C123.32 166.32 125.144 163.35 129.132 162.077C135.456 160.058 139.429 164.471 138.456 173.096Z" fill="#2D2926"/>
    <path d="M130.578 239.683C138.752 241.767 141.365 247.681 136.61 252.37C133.986 254.957 130.879 255.847 127.275 254.347C124.126 253.036 122.55 250.675 122.835 247.372C123.211 243.017 125.786 240.475 130.578 239.683Z" fill="#2D2926"/>
</svg>