<svg width="100" height="100" viewBox="0 0 100 100" fill="none" xmlns="http://www.w3.org/2000/svg">
    <g clip-path="url(#clip0_50_152)">
        <path d="M43.75 54.6875C65.3236 54.6875 82.8125 50.4902 82.8125 45.3125C82.8125 40.1348 65.3236 35.9375 43.75 35.9375C22.1764 35.9375 4.6875 40.1348 4.6875 45.3125C4.6875 50.4902 22.1764 54.6875 43.75 54.6875Z" stroke="#F2EDC0" stroke-width="2" stroke-miterlimit="10" stroke-linecap="round"/>
        <path d="M82.8125 45.3125V46.875C82.8125 71.0313 65.3281 87.5 43.75 87.5C22.1719 87.5 4.6875 71.0313 4.6875 46.875V45.3125" stroke="#F2EDC0" stroke-width="2" stroke-miterlimit="10" stroke-linecap="round"/>
        <path d="M82.8125 53.1251C84.9511 51.1698 87.7279 50.059 90.625 50.0001C91.2619 49.9086 91.9113 49.9667 92.5217 50.1699C93.1322 50.3732 93.6869 50.7158 94.1418 51.1708C94.5968 51.6257 94.9395 52.1804 95.1427 52.7909C95.3459 53.4013 95.404 54.0508 95.3125 54.6876V56.2501C95.3125 59.9797 93.8309 63.5566 91.1937 66.1938C88.5565 68.831 84.9796 70.3126 81.25 70.3126C81.25 70.3126 76.5625 70.3126 75 71.8751" stroke="#F2EDC0" stroke-width="2" stroke-miterlimit="10" stroke-linecap="round"/>
        <path d="M67.1875 79.6875C73.9219 81.6875 78.125 84.375 78.125 87.5C78.125 93.5469 62.7344 98.4375 43.75 98.4375C24.7656 98.4375 9.375 93.5469 9.375 87.5C9.375 84.375 13.5781 81.6875 20.3125 79.6875" stroke="#F2EDC0" stroke-width="2" stroke-miterlimit="10"/>
        <path d="M83.3723 9.93117L68.5897 -5.69905C63.8452 -11.388 69.2702 -23.7406 80.6068 -33.1951C91.9435 -42.6496 105.07 -45.768 109.814 -40.079L123.395 -21.6992" stroke="#F2EDC0" stroke-width="2" stroke-linecap="round" stroke-linejoin="round"/>
        <path d="M84.2318 10.9617L108.966 -9.66632" stroke="#F2EDC0" stroke-width="2" stroke-linecap="round" stroke-linejoin="round"/>
        <path d="M101.764 33.2629C101.348 33.0437 100.882 32.9377 100.412 32.9553C99.9426 32.973 99.4857 33.1138 99.0874 33.3635C95.0195 35.7774 89.0349 35.5787 84.4108 30.034L81.8323 26.9422C77.5348 21.7891 68.9438 21.9642 63.7907 26.2617C65.5015 24.8349 65.9019 20.4121 64.4752 18.7013C74.6101 11.9964 79.5076 13.4688 85.7797 14.9131C80.0812 8.08022 84.7411 -5.18964 96.0778 -14.6441C107.414 -24.0986 121.305 -26.2998 127.004 -19.4668L139.896 -4.00772C145.595 2.82521 140.935 16.0951 129.598 25.5496C120.508 33.1303 109.775 37.399 101.764 33.2629Z" stroke="#F2EDC0" stroke-width="2" stroke-linecap="round" stroke-linejoin="round"/>
        <path d="M59.6107 20.8024C54.208 25.3023 50.2081 20.4999 44.8054 24.9998C39.4027 29.4997 43.4026 34.3022 37.9999 38.8021" stroke="#F2EDC0" stroke-width="2" stroke-miterlimit="10" stroke-linecap="round"/>
        <path d="M61.7951 25.017C56.7782 28.7442 53.0509 23.7273 48.0339 27.4546C43.017 31.1818 46.7442 36.1988 41.7273 39.9261" stroke="#F2EDC0" stroke-width="2" stroke-miterlimit="10" stroke-linecap="round"/>
        <path d="M21.0405 13.1205L31.1753 35.974L14.0351 43.5751L3.90027 20.7216L6.28505 14.5362L14.8551 10.7357L21.0405 13.1205Z" stroke="#F2EDC0" stroke-width="2" stroke-linejoin="round"/>
        <path d="M13.1038 18.3493L4.86927 -0.219223C4.19729 -1.73451 4.15478 -3.45467 4.75109 -5.0013C5.3474 -6.54793 6.53368 -7.79434 8.04897 -8.46632C9.56425 -9.13829 11.2844 -9.1808 12.831 -8.5845C14.3777 -7.98819 15.6241 -6.80191 16.2961 -5.28662L16.9295 -3.85827" stroke="#F2EDC0" stroke-width="2" stroke-linecap="round" stroke-linejoin="round"/>
        <path d="M14.3707 21.2061C15.9484 20.5064 16.6602 18.6602 15.9605 17.0825C15.2608 15.5048 13.4147 14.793 11.837 15.4927C10.2592 16.1923 9.54744 18.0385 10.2471 19.6162C10.9468 21.1939 12.7929 21.9057 14.3707 21.2061Z" fill="#F2EDC0"/>
    </g>
    <defs>
        <clipPath id="clip0_50_152">
            <rect width="100" height="100" fill="white"/>
        </clipPath>
    </defs>
</svg>