<svg width="145" height="112" viewBox="0 0 145 112" fill="none" xmlns="http://www.w3.org/2000/svg">
    <path d="M105.938 45.7656C118.891 47.3281 127.812 50.4531 127.812 54.1875C127.812 59.3594 110.328 63.5625 88.75 63.5625C67.1719 63.5625 49.6875 59.3594 49.6875 54.1875C49.6875 49.0156 67.1719 44.8125 88.75 44.8125C92.5469 44.8125 96.2187 44.9375 99.6875 45.1875" stroke="#F2EDC0" stroke-width="2" stroke-miterlimit="10" stroke-linecap="round"/>
    <path d="M127.812 54.1875V55.75C127.812 79.9063 110.328 96.375 88.75 96.375C67.1719 96.375 49.6875 79.9063 49.6875 55.75V54.1875" stroke="#F2EDC0" stroke-width="2" stroke-miterlimit="10" stroke-linecap="round"/>
    <path d="M127.812 61.9999C129.951 60.0445 132.728 58.9338 135.625 58.8749C136.262 58.7833 136.911 58.8415 137.522 59.0447C138.132 59.2479 138.687 59.5906 139.142 60.0455C139.597 60.5005 139.939 61.0552 140.143 61.6656C140.346 62.2761 140.404 62.9255 140.312 63.5624V65.1249C140.312 68.8545 138.831 72.4313 136.194 75.0686C133.556 77.7058 129.98 79.1874 126.25 79.1874C126.25 79.1874 121.562 79.1874 120 80.7499" stroke="#F2EDC0" stroke-width="2" stroke-miterlimit="10" stroke-linecap="round"/>
    <path d="M112.188 88.5625C118.922 90.5625 123.125 93.25 123.125 96.375C123.125 102.422 107.734 107.312 88.75 107.312C69.7656 107.312 54.375 102.422 54.375 96.375C54.375 93.25 58.5781 90.5625 65.3125 88.5625" stroke="#F2EDC0" stroke-width="2" stroke-miterlimit="10"/>
    <path d="M90.4473 73.0706C95.7743 67.7436 96.5361 59.8686 92.1488 55.4813C87.7615 51.094 79.8865 51.8558 74.5595 57.1827C69.2325 62.5097 68.4708 70.3847 72.8581 74.772C77.2454 79.1593 85.1203 78.3975 90.4473 73.0706Z" stroke="#F2EDC0" stroke-width="2" stroke-miterlimit="10"/>
    <path d="M90.3906 55.0312L125.625 17.5312C125.918 17.2419 126.266 17.0132 126.648 16.8582C127.03 16.7031 127.438 16.6249 127.85 16.6278C128.262 16.6307 128.67 16.7147 129.049 16.8751C129.429 17.0354 129.773 17.269 130.062 17.5624C130.352 17.8558 130.581 18.2034 130.736 18.5852C130.891 18.967 130.969 19.3756 130.966 19.7876C130.963 20.1997 130.879 20.6072 130.719 20.9867C130.558 21.3663 130.325 21.7106 130.031 21.9999L92.5937 57.3124" stroke="#F2EDC0" stroke-width="2" stroke-linejoin="round"/>
    <path d="M62.1875 30.75L60.625 29.1875" stroke="#F2EDC0" stroke-width="2" stroke-miterlimit="10" stroke-linecap="round"/>
    <path d="M66.875 35.4375L68.4375 37" stroke="#F2EDC0" stroke-width="2" stroke-miterlimit="10" stroke-linecap="round"/>
    <path d="M66.875 30.75L68.4375 29.1875" stroke="#F2EDC0" stroke-width="2" stroke-miterlimit="10" stroke-linecap="round"/>
    <path d="M62.1875 35.4375L60.625 37" stroke="#F2EDC0" stroke-width="2" stroke-miterlimit="10" stroke-linecap="round"/>
    <path d="M93.4375 18.25L91.875 16.6875" stroke="#F2EDC0" stroke-width="2" stroke-miterlimit="10" stroke-linecap="round"/>
    <path d="M98.125 22.9375L99.6875 24.5" stroke="#F2EDC0" stroke-width="2" stroke-miterlimit="10" stroke-linecap="round"/>
    <path d="M98.125 18.25L99.6875 16.6875" stroke="#F2EDC0" stroke-width="2" stroke-miterlimit="10" stroke-linecap="round"/>
    <path d="M93.4375 22.9375L91.875 24.5" stroke="#F2EDC0" stroke-width="2" stroke-miterlimit="10" stroke-linecap="round"/>
    <path d="M132.5 38.5625L130.938 37" stroke="#F2EDC0" stroke-width="2" stroke-miterlimit="10" stroke-linecap="round"/>
    <path d="M137.188 43.25L138.75 44.8125" stroke="#F2EDC0" stroke-width="2" stroke-miterlimit="10" stroke-linecap="round"/>
    <path d="M137.188 38.5625L138.75 37" stroke="#F2EDC0" stroke-width="2" stroke-miterlimit="10" stroke-linecap="round"/>
    <path d="M132.5 43.25L130.938 44.8125" stroke="#F2EDC0" stroke-width="2" stroke-miterlimit="10" stroke-linecap="round"/>
    <path d="M15.7691 4.69303L37.849 26.1107C37.9626 26.2146 38.0783 26.3079 38.1871 26.3948C38.3396 26.5192 38.491 26.6462 38.6191 26.7861L40.0682 25.2017C40.7868 24.4159 42.0231 24.3717 42.8227 25.103C43.1301 25.3842 43.3269 25.7402 43.4139 26.1154C44.13 25.6922 45.0733 25.7624 45.7286 26.3618C46.1183 26.7182 46.3301 27.1936 46.3659 27.678C46.9768 27.5322 47.652 27.6843 48.1553 28.1446C48.6586 28.605 48.8702 29.2639 48.7801 29.886C49.2658 29.8785 49.7589 30.0477 50.1479 30.4035C50.9468 31.1342 51.0134 32.3688 50.2942 33.1552L49.8939 33.5929C50.0351 33.6541 50.1713 33.7334 50.2912 33.8431C50.86 34.3633 50.907 35.2429 50.3958 35.8018L47.2358 39.257C46.7245 39.816 45.8443 39.8476 45.2755 39.3273C45.1555 39.2176 45.0638 39.0897 44.9909 38.9538L44.59 39.3922C44.0907 39.9382 43.3443 40.1173 42.6649 39.9363C41.9436 40.7333 40.7803 41.9942 40.345 42.4351C40.1657 42.6171 39.6185 43.1734 38.9925 42.9368C38.6765 42.8176 38.5008 42.5436 38.361 42.324C38.2683 42.1776 38.1807 42.0396 38.0763 41.983C37.7849 41.8285 37.3288 42.3146 37.1963 42.4664L35.5264 44.3861C35.2415 44.713 34.8879 45.1192 34.3974 45.321C33.9536 45.5039 33.3369 45.4782 32.9423 45.1174C32.8824 45.0625 32.828 45.0002 32.7792 44.9304C32.3239 44.2663 32.7268 43.4548 33.2565 42.9176L33.4404 42.7361C33.6534 42.5271 34.151 42.0375 34.1937 41.8929C34.1482 41.9091 34.0467 42.02 33.9846 42.0865C33.9113 42.1667 33.8385 42.2435 33.7653 42.3011C33.3028 42.6682 32.8244 42.7363 32.4847 42.4835C32.3105 42.3506 32.2039 42.1689 32.1817 41.951C32.1309 41.4466 32.5382 40.9663 32.6636 40.8319L35.0943 38.2218C35.2292 38.0771 35.369 37.927 35.4068 37.7905C35.4064 37.7461 35.3535 37.6109 35.3151 37.5129C35.1205 37.0103 34.7576 36.0758 35.8257 35.0941L36.2804 35.5866C35.5396 36.2665 35.7494 36.8056 35.9327 37.2827C36.0234 37.5153 36.1094 37.7349 36.0513 37.9509C35.9673 38.2654 35.7547 38.4936 35.5835 38.678L33.1522 41.2888C32.9609 41.4938 32.827 41.755 32.8741 41.9541C32.9473 42.0084 33.1541 41.9321 33.3442 41.7802C33.3933 41.742 33.4414 41.6879 33.4909 41.6338C33.6607 41.4482 34.1119 40.9576 34.6264 41.4281C34.7491 41.5404 34.8166 41.6864 34.8208 41.8512C34.8326 42.2708 34.433 42.6979 33.9094 43.2116L33.7331 43.3876C33.4664 43.6568 33.0808 44.2087 33.3245 44.5637C33.478 44.7921 33.8659 44.8186 34.1339 44.7089C34.4823 44.5646 34.7685 44.2363 35.0195 43.9464L36.6901 42.0261C37.4411 41.1656 38.023 41.2097 38.3785 41.3977C38.6393 41.5368 38.7883 41.77 38.92 41.976C39.0202 42.138 39.1084 42.2753 39.2168 42.3178C39.3609 42.3716 39.5852 42.251 39.8657 41.9653C40.2696 41.5573 41.3133 40.4286 42.031 39.6383C41.9641 39.591 41.8962 39.5477 41.8348 39.4916C41.4451 39.1352 41.2334 38.6598 41.1976 38.1754C40.5867 38.3212 39.9108 38.1685 39.4075 37.7081C38.9048 37.2484 38.6933 36.5895 38.7834 35.9674C38.2977 35.9749 37.8046 35.8057 37.4156 35.4499C36.761 34.8512 36.607 33.9179 36.9647 33.1656C36.5825 33.1117 36.2104 32.9475 35.9036 32.6669C35.104 31.9356 35.038 30.7003 35.7566 29.9146L37.2069 28.3288C37.0568 28.2129 36.9155 28.0735 36.7787 27.9333C36.6831 27.8334 36.5793 27.7258 36.4761 27.6314L13.1659 7.53662L13.1554 7.52705C12.3572 6.79701 12.292 5.56498 13.0088 4.78132C13.7275 3.99825 14.9604 3.95342 15.7691 4.69303ZM45.8631 38.0016C45.6939 38.1853 45.7094 38.4762 45.8976 38.6484C46.0859 38.8205 46.3764 38.8095 46.5449 38.6252L49.7049 35.17C49.8741 34.985 49.8579 34.6947 49.6704 34.5232C49.4828 34.3517 49.1916 34.3621 49.0231 34.5464L45.8631 38.0016ZM42.3813 37.371C42.0048 37.7827 42.0394 38.4295 42.4576 38.812C42.8759 39.1946 43.5219 39.1714 43.8984 38.7598L45.1708 37.3685L48.3308 33.9133L49.6039 32.5213C49.9804 32.1096 49.9459 31.4642 49.5276 31.0817C49.1087 30.6985 48.4627 30.7216 48.0862 31.1333L42.3813 37.371ZM45.8769 29.1128L40.1721 35.3505L39.954 35.5889C39.5781 35.9999 39.6126 36.6453 40.0309 37.0279C40.4499 37.4111 41.0958 37.3879 41.4717 36.9769L41.6898 36.7385L47.3946 30.5008L47.612 30.2631C47.9885 29.8514 47.9541 29.206 47.5351 28.8228C47.1168 28.4402 46.4708 28.4634 46.0943 28.8751L45.8769 29.1128ZM42.9711 27.8553L38.6608 32.5682L37.9629 33.3313C37.5863 33.743 37.6208 34.3884 38.0391 34.771C38.4581 35.1542 39.104 35.131 39.4806 34.7193L45.186 28.4809C45.5626 28.0692 45.5281 27.4238 45.1091 27.0406C44.6908 26.658 44.0449 26.6812 43.6683 27.0929L42.9711 27.8553ZM36.4508 30.547C36.0743 30.9587 36.1088 31.6041 36.5278 31.9873C36.9467 32.3705 37.5927 32.3474 37.9692 31.9357L42.2795 27.2228C42.656 26.8111 42.6215 26.1657 42.2025 25.7825C41.7836 25.3993 41.1376 25.4224 40.7611 25.8341L36.4508 30.547ZM13.7734 6.84433L37.0878 26.943C37.2168 27.0609 37.3333 27.1813 37.4434 27.2947C37.5705 27.4259 37.7655 27.6257 37.8021 27.6529C37.8027 27.6522 37.8404 27.6376 37.9137 27.5574C37.9625 27.504 37.9839 27.4694 37.9941 27.4624C37.9422 27.3835 37.7459 27.2215 37.61 27.1111C37.4888 27.0141 37.3598 26.9087 37.2225 26.7831C37.2211 26.7818 37.2197 26.7806 37.2183 26.7793L15.1377 5.36099C14.7208 4.97971 14.0775 5.00276 13.7023 5.41308C13.3283 5.82336 13.3611 6.46222 13.7734 6.84433Z" fill="#F2EDC0"/>
    <g clip-path="url(#clip0_220_3)">
        <path d="M20.8221 44.9677L20.6441 44.2549L19.9313 44.4328L20.1093 45.1456L20.8221 44.9677Z" fill="#F2EDC0"/>
        <path d="M24.0578 48.021L23.8798 47.3081L23.167 47.486L23.345 48.1989L24.0578 48.021Z" fill="#F2EDC0"/>
        <path d="M22.2882 52.5917L22.1103 51.8789L21.3975 52.0568L21.5754 52.7696L22.2882 52.5917Z" fill="#F2EDC0"/>
        <path d="M25.1361 51.365L24.9582 50.6521L24.2454 50.83L24.4233 51.5429L25.1361 51.365Z" fill="#F2EDC0"/>
        <path d="M25.5499 44.8984L25.372 44.1855L24.6591 44.3635L24.837 45.0763L25.5499 44.8984Z" fill="#F2EDC0"/>
        <path d="M20.1743 49.7187L19.9964 49.0059L19.2836 49.1838L19.4615 49.8966L20.1743 49.7187Z" fill="#F2EDC0"/>
        <path d="M27.3154 41.1322L16.029 43.9492L14.7865 38.9713L2.78728 41.9662L5.78218 53.9654L17.0686 51.1485L18.311 56.1264L30.3103 53.1315L27.3154 41.1322ZM6.31706 53.0747L3.678 42.5011L14.2516 39.862L16.8907 50.4356L6.31708 53.0747L6.31706 53.0747ZM18.846 55.2356L16.2069 44.662L26.7805 42.0229L29.4196 52.5965L18.846 55.2356Z" fill="#F2EDC0"/>
        <path d="M8.67236 44.3261L8.49445 43.6133L7.78164 43.7912L7.95955 44.504L8.67236 44.3261Z" fill="#F2EDC0"/>
        <path d="M11.6533 46.3586L11.4754 45.6458L10.7626 45.8237L10.9405 46.5365L11.6533 46.3586Z" fill="#F2EDC0"/>
        <path d="M9.88366 50.9286L9.70575 50.2158L8.99294 50.3937L9.17085 51.1065L9.88366 50.9286Z" fill="#F2EDC0"/>
        <path d="M12.7316 49.7018L12.5537 48.989L11.8409 49.1669L12.0188 49.8797L12.7316 49.7018Z" fill="#F2EDC0"/>
        <path d="M13.4004 44.2565L13.2225 43.5437L12.5097 43.7216L12.6876 44.4344L13.4004 44.2565Z" fill="#F2EDC0"/>
        <path d="M7.7699 48.0563L7.592 47.3435L6.87919 47.5214L7.0571 48.2342L7.7699 48.0563Z" fill="#F2EDC0"/>
    </g>
    <g clip-path="url(#clip1_220_3)">
        <path d="M23.1854 23.6384C23.2184 23.4866 23.1221 23.3369 22.9702 23.304L21.124 22.9036C21.1237 22.9035 21.1235 22.9033 21.1232 22.9032C21.1232 22.9032 21.1226 22.9033 21.1223 22.9032L3.00164 18.9732C2.8498 18.9403 2.70011 19.0366 2.66714 19.1884C2.05309 22.0173 2.64662 24.8308 4.10162 27.0917C5.55603 29.3515 7.87136 31.0588 10.6996 31.6722C13.438 32.2663 16.2457 31.7573 18.6051 30.2392C20.9644 28.7211 22.591 26.377 23.1854 23.6384ZM6.01663 25.525C5.05523 23.9107 4.65335 21.9599 5.01122 19.9846L12.2032 21.5444L6.01663 25.525ZM12.5077 22.0174L10.9602 29.1459C10.9553 29.1684 10.9587 29.19 10.9592 29.2121C9.00761 28.7209 7.39415 27.5452 6.32101 25.9981L12.5077 22.0174ZM11.4832 29.3259C11.4929 29.3061 11.505 29.2877 11.5099 29.2651L13.0574 22.1366L17.0383 28.3236C15.3581 29.3255 13.406 29.6777 11.4832 29.3259ZM13.5306 21.8323L20.7223 23.392C20.244 25.282 19.1159 26.9076 17.5114 28.0192L13.5306 21.8323ZM10.8189 31.1225C8.22717 30.5604 6.00892 29.0213 4.57243 26.7887C3.18674 24.6351 2.69264 22.0874 3.16387 19.5839L4.46152 19.8654C4.05314 22.0911 4.54467 24.2894 5.69031 26.0694C6.88287 27.9224 8.78154 29.3223 11.1003 29.8252C13.346 30.3124 15.6482 29.8951 17.5827 28.6503C19.4382 27.4565 20.7386 25.6388 21.272 23.5113L22.5694 23.7926C21.9603 26.2662 20.4544 28.3804 18.3007 29.7662C16.0677 31.2029 13.4106 31.6846 10.8189 31.1225Z" fill="#F2EDC0"/>
    </g>
    <defs>
        <clipPath id="clip0_220_3">
            <rect width="24" height="24" fill="white" transform="translate(25.2857 33) rotate(75.9858)"/>
        </clipPath>
        <clipPath id="clip1_220_3">
            <rect width="17.9996" height="17.9996" fill="white" transform="translate(15.1777 11.0408) rotate(57.2415)"/>
        </clipPath>
    </defs>
</svg>