<svg width="120" height="100" viewBox="0 0 120 100" fill="none" xmlns="http://www.w3.org/2000/svg">
    <path d="M63.7502 54.6875C85.3238 54.6875 102.813 50.4902 102.813 45.3125C102.813 40.1348 85.3238 35.9375 63.7502 35.9375C42.1765 35.9375 24.6877 40.1348 24.6877 45.3125C24.6877 50.4902 42.1765 54.6875 63.7502 54.6875Z" stroke="#F2EDC0" stroke-width="2" stroke-miterlimit="10" stroke-linecap="round"/>
    <path d="M29.375 67.1875C26.1898 60.8965 24.5812 53.9256 24.6875 46.875V45.3125" stroke="#F2EDC0" stroke-width="2" stroke-miterlimit="10" stroke-linecap="round"/>
    <path d="M102.812 45.3125V46.875C102.812 71.0313 85.3281 87.5 63.75 87.5C57.2076 87.5195 50.7635 85.9084 45 82.8125" stroke="#F2EDC0" stroke-width="2" stroke-miterlimit="10" stroke-linecap="round"/>
    <path d="M102.812 53.1251C104.951 51.1698 107.728 50.059 110.625 50.0001C111.262 49.9086 111.911 49.9667 112.522 50.1699C113.132 50.3732 113.687 50.7158 114.142 51.1708C114.597 51.6257 114.939 52.1804 115.143 52.7909C115.346 53.4013 115.404 54.0508 115.312 54.6876V56.2501C115.312 59.9797 113.831 63.5566 111.194 66.1938C108.556 68.831 104.98 70.3126 101.25 70.3126C101.25 70.3126 96.5625 70.3126 95 71.8751" stroke="#F2EDC0" stroke-width="2" stroke-miterlimit="10" stroke-linecap="round"/>
    <path d="M87.1875 79.6875C93.9219 81.6875 98.125 84.375 98.125 87.5C98.125 93.5469 82.7344 98.4375 63.75 98.4375C55.6203 98.5648 47.515 97.5122 39.6875 95.3125" stroke="#F2EDC0" stroke-width="2" stroke-miterlimit="10"/>
    <path d="M45 70.3125V95.3125H26.25V70.3125L30.9375 65.625H40.3125L45 70.3125Z" stroke="#F2EDC0" stroke-width="2" stroke-linejoin="round"/>
    <path d="M35.625 71.875V51.5625C35.625 49.9049 36.2835 48.3152 37.4556 47.1431C38.6277 45.971 40.2174 45.3125 41.875 45.3125C43.5326 45.3125 45.1223 45.971 46.2944 47.1431C47.4665 48.3152 48.125 49.9049 48.125 51.5625V53.125" stroke="#F2EDC0" stroke-width="2" stroke-linecap="round" stroke-linejoin="round"/>
    <path d="M35.625 75C37.3509 75 38.75 73.6009 38.75 71.875C38.75 70.1491 37.3509 68.75 35.625 68.75C33.8991 68.75 32.5 70.1491 32.5 71.875C32.5 73.6009 33.8991 75 35.625 75Z" fill="#F2EDC0"/>
    <path d="M66.875 1.5625C66.875 8.59375 60.625 8.59375 60.625 15.625C60.625 22.6562 66.875 22.6562 66.875 29.6875" stroke="#F2EDC0" stroke-width="2" stroke-miterlimit="10" stroke-linecap="round"/>
    <path d="M51.25 8C51.25 14.25 45 14.25 45 20.5C45 26.75 51.25 26.75 51.25 33" stroke="#F2EDC0" stroke-width="2" stroke-miterlimit="10" stroke-linecap="round"/>
    <path d="M82.25 8C82.25 14.25 76 14.25 76 20.5C76 26.75 82.25 26.75 82.25 33" stroke="#F2EDC0" stroke-width="2" stroke-miterlimit="10" stroke-linecap="round"/>
    <g clip-path="url(#clip0_220_2)">
        <path d="M20.8646 18.2201L15.0943 14.1851V7.25002C15.0943 6.92318 14.8268 6.65576 14.5 6.65576C14.1732 6.65576 13.9057 6.92318 13.9057 7.25002V14.5C13.9057 14.6961 14.0008 14.8744 14.1613 14.9873L20.1871 19.2006C20.2881 19.272 20.407 19.3076 20.5258 19.3076C20.71 19.3076 20.8943 19.2185 21.0131 19.0461C21.1973 18.7787 21.132 18.4103 20.8646 18.2201Z" fill="#F2EDC0"/>
        <path d="M24.7451 4.25492C21.9996 1.50943 18.3627 0 14.5 0C10.6373 0 7.00041 1.50943 4.25492 4.25492C1.50943 7.00041 0 10.6373 0 14.5C0 18.3627 1.50943 21.9996 4.25492 24.7451C7.00041 27.4906 10.6373 29 14.5 29C18.3627 29 21.9996 27.4906 24.7451 24.7451C27.4906 21.9996 29 18.3627 29 14.5C29 10.6373 27.4906 7.00041 24.7451 4.25492ZM15.0943 27.7996V25.375C15.0943 25.0482 14.8268 24.7807 14.5 24.7807C14.1732 24.7807 13.9057 25.0482 13.9057 25.375V27.7996C7.03607 27.4965 1.50348 21.9639 1.20041 15.0943H3.625C3.95184 15.0943 4.21926 14.8268 4.21926 14.5C4.21926 14.1732 3.95184 13.9057 3.625 13.9057H1.20041C1.50348 7.03607 7.03607 1.50348 13.9057 1.20041V3.625C13.9057 3.95184 14.1732 4.21926 14.5 4.21926C14.8268 4.21926 15.0943 3.95184 15.0943 3.625V1.20041C21.9639 1.50348 27.4965 7.03607 27.7996 13.9057H25.375C25.0482 13.9057 24.7807 14.1732 24.7807 14.5C24.7807 14.8268 25.0482 15.0943 25.375 15.0943H27.7996C27.4965 21.9639 21.9639 27.4965 15.0943 27.7996Z" fill="#F2EDC0"/>
    </g>
    <defs>
        <clipPath id="clip0_220_2">
            <rect width="29" height="29" fill="white"/>
        </clipPath>
    </defs>
</svg>